<svg width="166" height="208" viewBox="0 0 166 208" fill="none" xmlns="http://www.w3.org/2000/svg">
<rect width="166" height="208" rx="16" fill="url(#paint0_radial_23_23)" fill-opacity="0.05"/>
<rect width="166" height="208" rx="16" fill="url(#paint1_radial_23_23)" fill-opacity="0.1"/>
<rect width="166" height="208" rx="16" fill="url(#paint2_radial_23_23)" fill-opacity="0.15"/>
<path fill-rule="evenodd" clip-rule="evenodd" d="M83.0039 23.4839V7H84.0039V7.5H84.0059V23.4839C84.0059 23.5285 84.0056 23.573 84.0049 23.6175C84.0763 28.2502 87.855 31.9841 92.5049 31.9841H158.306V32.9841H92.5049C87.8105 32.9841 84.0049 36.7897 84.0049 41.4841L84.0049 66.5002H83.0049V57.9839H83V41.4839C83 36.7895 79.1944 32.9839 74.5 32.9839H64V31.9839H74.5059C79.1557 31.9839 82.9335 28.2502 83.0048 23.6175C83.0042 23.5731 83.0039 23.5285 83.0039 23.4839ZM83.5049 26.536C82.5578 29.3295 80.3466 31.5395 77.5524 32.4849C80.3471 33.4325 82.5579 35.6456 83.5025 38.4418C84.4474 35.6447 86.6593 33.4312 89.4554 32.4841C86.6624 31.5381 84.4519 29.3286 83.5049 26.536Z" fill="url(#paint3_linear_23_23)" fill-opacity="0.1"/>
<path fill-rule="evenodd" clip-rule="evenodd" d="M133 67V7L134 7V67H133Z" fill="url(#paint4_linear_23_23)" fill-opacity="0.1"/>
<path fill-rule="evenodd" clip-rule="evenodd" d="M108 67L108 7L109 7L109 67H108Z" fill="url(#paint5_linear_23_23)" fill-opacity="0.1"/>
<path fill-rule="evenodd" clip-rule="evenodd" d="M83 57L159 57V58L83 58V57Z" fill="url(#paint6_linear_23_23)" fill-opacity="0.1"/>
<path fill-rule="evenodd" clip-rule="evenodd" d="M149.6 7.5H64V6.5H149.6C154.846 6.5 159.1 10.7533 159.1 16V67H158.1V16C158.1 11.3056 154.294 7.5 149.6 7.5Z" fill="url(#paint7_linear_23_23)" fill-opacity="0.1"/>
<rect x="0.5" y="0.5" width="165" height="207" rx="15.5" stroke="url(#paint8_linear_23_23)" stroke-opacity="0.4"/>
<defs>
<radialGradient id="paint0_radial_23_23" cx="0" cy="0" r="1" gradientUnits="userSpaceOnUse" gradientTransform="translate(83 104) rotate(90) scale(104 83)">
<stop stop-color="white"/>
<stop offset="1" stop-color="white" stop-opacity="0"/>
</radialGradient>
<radialGradient id="paint1_radial_23_23" cx="0" cy="0" r="1" gradientUnits="userSpaceOnUse" gradientTransform="translate(83 4) rotate(-90) scale(88.5 88.5)">
<stop stop-color="white"/>
<stop offset="1" stop-color="white" stop-opacity="0"/>
</radialGradient>
<radialGradient id="paint2_radial_23_23" cx="0" cy="0" r="1" gradientUnits="userSpaceOnUse" gradientTransform="translate(83 208) rotate(90) scale(43.5 82.7592)">
<stop stop-color="white"/>
<stop offset="1" stop-color="white" stop-opacity="0"/>
</radialGradient>
<linearGradient id="paint3_linear_23_23" x1="158.5" y1="8.5" x2="76" y2="72" gradientUnits="userSpaceOnUse">
<stop stop-color="white"/>
<stop offset="1" stop-color="white" stop-opacity="0"/>
</linearGradient>
<linearGradient id="paint4_linear_23_23" x1="158.5" y1="8.5" x2="76" y2="72" gradientUnits="userSpaceOnUse">
<stop stop-color="white"/>
<stop offset="1" stop-color="white" stop-opacity="0"/>
</linearGradient>
<linearGradient id="paint5_linear_23_23" x1="158.5" y1="8.5" x2="76" y2="72" gradientUnits="userSpaceOnUse">
<stop stop-color="white"/>
<stop offset="1" stop-color="white" stop-opacity="0"/>
</linearGradient>
<linearGradient id="paint6_linear_23_23" x1="158.5" y1="8.5" x2="76" y2="72" gradientUnits="userSpaceOnUse">
<stop stop-color="white"/>
<stop offset="1" stop-color="white" stop-opacity="0"/>
</linearGradient>
<linearGradient id="paint7_linear_23_23" x1="158.5" y1="8.5" x2="76" y2="72" gradientUnits="userSpaceOnUse">
<stop stop-color="white"/>
<stop offset="1" stop-color="white" stop-opacity="0"/>
</linearGradient>
<linearGradient id="paint8_linear_23_23" x1="83" y1="0" x2="83" y2="208" gradientUnits="userSpaceOnUse">
<stop stop-color="white"/>
<stop offset="1" stop-color="white" stop-opacity="0.25"/>
</linearGradient>
</defs>
</svg>
