<svg width="1920" height="586" viewBox="0 0 1920 586" fill="none" xmlns="http://www.w3.org/2000/svg">
<g clip-path="url(#clip0_19_2)">
<g opacity="0.2">
<path fill-rule="evenodd" clip-rule="evenodd" d="M177 69.9985L177 584.998H176L176 69.9985H177Z" fill="url(#paint0_linear_19_2)"/>
<path fill-rule="evenodd" clip-rule="evenodd" d="M400.98 471.368V586H399.98V471.368H400.98Z" fill="url(#paint1_linear_19_2)"/>
<path fill-rule="evenodd" clip-rule="evenodd" d="M64.9998 69.9984L64.9998 584.998H63.9998L63.9998 69.9984H64.9998Z" fill="url(#paint2_linear_19_2)"/>
<path fill-rule="evenodd" clip-rule="evenodd" d="M513.463 69.9989V414.984H512.463V69.9989H513.463Z" fill="url(#paint3_linear_19_2)"/>
<path fill-rule="evenodd" clip-rule="evenodd" d="M625.001 69.9997L625 129.459L624 129.459L624.001 69.9997L625.001 69.9997Z" fill="url(#paint4_linear_19_2)"/>
<path fill-rule="evenodd" clip-rule="evenodd" d="M736.5 70.0002V129.5H735.5V70.0002H736.5Z" fill="url(#paint5_linear_19_2)"/>
<path fill-rule="evenodd" clip-rule="evenodd" d="M848.5 70V130H847.5V70H848.5Z" fill="url(#paint6_linear_19_2)"/>
<path fill-rule="evenodd" clip-rule="evenodd" d="M960.506 69.999V129.999H959.506V69.999H960.506Z" fill="url(#paint7_linear_19_2)"/>
<path fill-rule="evenodd" clip-rule="evenodd" d="M1072.51 69.999V129.999H1071.51V69.999H1072.51Z" fill="url(#paint8_linear_19_2)"/>
<path fill-rule="evenodd" clip-rule="evenodd" d="M1409.01 69.9996V472H1408.01V69.9996H1409.01Z" fill="url(#paint9_linear_19_2)"/>
<path fill-rule="evenodd" clip-rule="evenodd" d="M1378.5 243.999H1295.6V242.999H1378.5C1395.34 242.999 1409 256.655 1409 273.499V357.774H1408V273.499C1408 257.207 1394.79 243.999 1378.5 243.999Z" fill="url(#paint10_linear_19_2)"/>
<path fill-rule="evenodd" clip-rule="evenodd" d="M1521.01 69.9971V584.997H1520.01V69.9971H1521.01Z" fill="url(#paint11_linear_19_2)"/>
<path fill-rule="evenodd" clip-rule="evenodd" d="M1633.01 69.9971V584.997H1632.01V69.9971H1633.01Z" fill="url(#paint12_linear_19_2)"/>
<path fill-rule="evenodd" clip-rule="evenodd" d="M1745.01 69.9987V300.5H1744.01V69.9987H1745.01Z" fill="url(#paint13_linear_19_2)"/>
<path fill-rule="evenodd" clip-rule="evenodd" d="M1857.01 69.9971V584.997H1856.01V69.9971H1857.01Z" fill="url(#paint14_linear_19_2)"/>
<path fill-rule="evenodd" clip-rule="evenodd" d="M170.5 237.5H182.5V249.5H170.5V237.5ZM171.5 238.5V248.5H181.5V238.5H171.5Z" fill="url(#paint15_linear_19_2)"/>
<path fill-rule="evenodd" clip-rule="evenodd" d="M170.5 294.5H182.5V306.5H170.5V294.5ZM171.5 295.5V305.5H181.5V295.5H171.5Z" fill="url(#paint16_linear_19_2)"/>
<path fill-rule="evenodd" clip-rule="evenodd" d="M288.5 328V69.9998H289.5V328C289.5 344.844 275.844 358.5 259 358.5H-0.000205994V357.5H259C275.292 357.5 288.5 344.292 288.5 328Z" fill="url(#paint17_linear_19_2)"/>
<path fill-rule="evenodd" clip-rule="evenodd" d="M399.879 441.368V183.368H400.879V441.368C400.879 458.213 387.224 471.868 370.379 471.868H111.379V470.868H370.379C386.671 470.868 399.879 457.661 399.879 441.368Z" fill="url(#paint18_linear_19_2)"/>
<path fill-rule="evenodd" clip-rule="evenodd" d="M400.5 585.999L-1 585.998V584.998L400.5 584.999V585.999ZM1920 585.998H1520V584.998H1920V585.998Z" fill="url(#paint19_linear_19_2)"/>
<path fill-rule="evenodd" clip-rule="evenodd" d="M400.5 529H-1.00021V528H400.5V529ZM1920 529H1520.5V528H1920V529Z" fill="url(#paint20_linear_19_2)"/>
<path fill-rule="evenodd" clip-rule="evenodd" d="M400.482 472H-1.00021V471H400.482V472ZM1920 472H1408.48V471H1920V472Z" fill="url(#paint21_linear_19_2)"/>
<path fill-rule="evenodd" clip-rule="evenodd" d="M512.862 415.001H-1.00021V414.001H512.862V415.001ZM1920 415.001H1409V414.001H1920V415.001Z" fill="url(#paint22_linear_19_2)"/>
<path fill-rule="evenodd" clip-rule="evenodd" d="M512.958 301H-1.00021V300H512.958V301ZM1920 301H1408V300H1920V301Z" fill="url(#paint23_linear_19_2)"/>
<path fill-rule="evenodd" clip-rule="evenodd" d="M512.967 244H-1.00021V243H512.967V244ZM1920 244H1408.86V243H1920V244Z" fill="url(#paint24_linear_19_2)"/>
<path fill-rule="evenodd" clip-rule="evenodd" d="M415 187H-1.00021V186H415V187ZM513 187H497.872V186H513V187ZM1920 187H1408.92V186H1920V187Z" fill="url(#paint25_linear_19_2)"/>
<path fill-rule="evenodd" clip-rule="evenodd" d="M394.5 237.5H406.5V249.5H394.5V237.5ZM395.5 238.5V248.5H405.5V238.5H395.5Z" fill="url(#paint26_linear_19_2)"/>
<path fill-rule="evenodd" clip-rule="evenodd" d="M394.5 294.5H406.5V306.5H394.5V294.5ZM395.5 295.5V305.5H405.5V295.5H395.5Z" fill="url(#paint27_linear_19_2)"/>
<path fill-rule="evenodd" clip-rule="evenodd" d="M289.5 328V69.9998H288.5V328C288.5 344.844 302.155 358.499 319 358.499H512.568V357.499H319C302.708 357.499 289.5 344.292 289.5 328Z" fill="url(#paint28_linear_19_2)"/>
<path fill-rule="evenodd" clip-rule="evenodd" d="M1856.5 358.021H1920V357.021H1856.5V358.021ZM319.5 358.496H513V357.496H319.5C302.656 357.496 289 371.152 289 387.996V585.779H290V387.996C290 371.704 303.208 358.496 319.5 358.496Z" fill="url(#paint29_linear_19_2)"/>
<path fill-rule="evenodd" clip-rule="evenodd" d="M400.886 99.5322V69.998H399.886V99.5322C399.886 116.377 413.541 130.032 430.386 130.032L689.386 130.032V129.032L430.386 129.032C414.093 129.032 400.886 115.825 400.886 99.5322Z" fill="url(#paint30_linear_19_2)"/>
<path fill-rule="evenodd" clip-rule="evenodd" d="M399.865 99.5322V69.998H400.865V99.5322C400.865 116.377 387.21 130.032 370.365 130.032L111.365 130.032V129.032L370.365 129.032C386.658 129.032 399.865 115.825 399.865 99.5322Z" fill="url(#paint31_linear_19_2)"/>
<path fill-rule="evenodd" clip-rule="evenodd" d="M430.395 130.033L847.934 130.033V129.033L430.395 129.033C413.55 129.033 399.895 142.688 399.895 159.533V418.533H400.895V159.533C400.895 143.24 414.103 130.033 430.395 130.033Z" fill="url(#paint32_linear_19_2)"/>
<path fill-rule="evenodd" clip-rule="evenodd" d="M1266.02 130.034L735.73 130.034V129.034L1266.02 129.034C1282.86 129.034 1296.52 142.689 1296.52 159.534V243.808H1295.52V159.534C1295.52 143.241 1282.31 130.034 1266.02 130.034Z" fill="url(#paint33_linear_19_2)"/>
<path fill-rule="evenodd" clip-rule="evenodd" d="M1296.7 99.5341V70H1297.7V99.5341C1297.7 116.379 1284.04 130.034 1267.2 130.034L1182.93 130.034V129.034L1267.2 129.034C1283.49 129.034 1296.7 115.826 1296.7 99.5341Z" fill="url(#paint34_linear_19_2)"/>
<path fill-rule="evenodd" clip-rule="evenodd" d="M1297.7 99.5341L1297.7 69.9991H1296.7L1296.7 99.5341C1296.7 116.379 1310.36 130.034 1327.2 130.034L1408.55 130.034V129.034L1327.2 129.034C1310.91 129.034 1297.7 115.826 1297.7 99.5341Z" fill="url(#paint35_linear_19_2)"/>
<path fill-rule="evenodd" clip-rule="evenodd" d="M370.378 130.033L-112.996 130.033L-112.996 129.033L370.378 129.033C387.222 129.033 400.878 142.688 400.878 159.533V418.533H399.878V159.533C399.878 143.24 386.67 130.033 370.378 130.033Z" fill="url(#paint36_linear_19_2)"/>
<path fill-rule="evenodd" clip-rule="evenodd" d="M1309.51 159.999C1309.51 150.887 1316.89 143.499 1326.01 143.499H1385.01C1389.7 143.499 1393.51 147.305 1393.51 151.999V220.999C1393.51 225.694 1389.7 229.499 1385.01 229.499H1318.01C1313.31 229.499 1309.51 225.694 1309.51 220.999V159.999ZM1326.01 144.499C1317.45 144.499 1310.51 151.439 1310.51 159.999V220.999C1310.51 225.142 1313.86 228.499 1318.01 228.499H1385.01C1389.15 228.499 1392.51 225.142 1392.51 220.999V151.999C1392.51 147.857 1389.15 144.499 1385.01 144.499H1326.01Z" fill="url(#paint37_linear_19_2)"/>
<path fill-rule="evenodd" clip-rule="evenodd" d="M1745.01 327.534V297.999H1744.01V327.534C1744.01 344.378 1757.66 358.034 1774.51 358.034H1858.78V357.034H1774.51C1758.21 357.034 1745.01 343.826 1745.01 327.534Z" fill="url(#paint38_linear_19_2)"/>
<path fill-rule="evenodd" clip-rule="evenodd" d="M1744 328.025L1744 298.491H1745L1745 328.025C1745 344.87 1731.34 358.525 1714.5 358.525H1402.99V357.525H1714.5C1730.79 357.525 1744 344.318 1744 328.025Z" fill="url(#paint39_linear_19_2)"/>
<path fill-rule="evenodd" clip-rule="evenodd" d="M1577.01 371.5C1553.53 371.5 1534.51 390.528 1534.51 414C1534.51 437.472 1553.53 456.5 1577.01 456.5C1600.48 456.5 1619.51 437.472 1619.51 414C1619.51 390.528 1600.48 371.5 1577.01 371.5ZM1533.51 414C1533.51 389.975 1552.98 370.5 1577.01 370.5C1601.03 370.5 1620.51 389.975 1620.51 414C1620.51 438.024 1601.03 457.5 1577.01 457.5C1552.98 457.5 1533.51 438.024 1533.51 414Z" fill="url(#paint40_linear_19_2)"/>
<path fill-rule="evenodd" clip-rule="evenodd" d="M792 33.5C768.528 33.5 749.5 52.5279 749.5 76C749.5 99.4721 768.528 118.5 792 118.5C815.472 118.5 834.5 99.4721 834.5 76C834.5 52.5279 815.472 33.5 792 33.5ZM748.5 76C748.5 51.9756 767.976 32.5 792 32.5C816.024 32.5 835.5 51.9756 835.5 76C835.5 100.024 816.024 119.5 792 119.5C767.976 119.5 748.5 100.024 748.5 76Z" fill="url(#paint41_linear_19_2)"/>
<path fill-rule="evenodd" clip-rule="evenodd" d="M1402.47 294.511H1414.47V306.511H1402.47V294.511ZM1403.47 295.511V305.511H1413.47V295.511H1403.47Z" fill="url(#paint42_linear_19_2)"/>
<path fill-rule="evenodd" clip-rule="evenodd" d="M1402.47 351.512H1414.47V363.512H1402.47V351.512ZM1403.47 352.512V362.512H1413.47V352.512H1403.47Z" fill="url(#paint43_linear_19_2)"/>
<path fill-rule="evenodd" clip-rule="evenodd" d="M1514.47 294.773H1526.47V306.773H1514.47V294.773ZM1515.47 295.773V305.773H1525.47V295.773H1515.47Z" fill="url(#paint44_linear_19_2)"/>
<path fill-rule="evenodd" clip-rule="evenodd" d="M1514.47 351.773H1526.47V363.773H1514.47V351.773ZM1515.47 352.773V362.773H1525.47V352.773H1515.47Z" fill="url(#paint45_linear_19_2)"/>
<path fill-rule="evenodd" clip-rule="evenodd" d="M430.879 144.5C429.843 144.5 428.831 144.601 427.853 144.795L427.659 143.814C428.701 143.607 429.778 143.5 430.879 143.5H434.566V144.5H430.879ZM449.316 144.5H441.941V143.5H449.316V144.5ZM464.066 144.5H456.691V143.5H464.066V144.5ZM478.816 144.5H471.441V143.5H478.816V144.5ZM489.879 144.5H486.191V143.5H489.879C491.031 143.5 492.13 143.729 493.133 144.145L492.75 145.068C491.866 144.702 490.897 144.5 489.879 144.5ZM422.267 147.11C420.577 148.242 419.121 149.697 417.989 151.388L417.158 150.831C418.363 149.032 419.912 147.483 421.711 146.279L422.267 147.11ZM497.379 152C497.379 150.982 497.176 150.012 496.81 149.129L497.734 148.746C498.15 149.749 498.379 150.848 498.379 152V156.312H497.379V152ZM415.674 156.974C415.48 157.952 415.379 158.964 415.379 160V163.812H414.379V160C414.379 158.898 414.487 157.822 414.693 156.78L415.674 156.974ZM497.379 173.562V164.937H498.379V173.562H497.379ZM415.379 171.437V179.062H414.379V171.437H415.379ZM497.379 190.812V182.187H498.379V190.812H497.379ZM415.379 186.687V194.312H414.379V186.687H415.379ZM497.379 208.062V199.437H498.379V208.062H497.379ZM415.379 201.937V209.562H414.379V201.937H415.379ZM497.379 221V216.687H498.379V221C498.379 222.151 498.15 223.25 497.734 224.253L496.81 223.87C497.176 222.987 497.379 222.017 497.379 221ZM415.379 217.187V221C415.379 222.017 415.581 222.987 415.948 223.87L415.024 224.253C414.608 223.25 414.379 222.151 414.379 221V217.187H415.379ZM420.008 227.931C420.892 228.297 421.861 228.5 422.879 228.5H427.066V229.5H422.879C421.727 229.5 420.628 229.27 419.625 228.854L420.008 227.931ZM489.879 228.5C490.897 228.5 491.866 228.297 492.75 227.931L493.133 228.854C492.13 229.27 491.031 229.5 489.879 229.5H485.691V228.5H489.879ZM435.441 228.5H443.816V229.5H435.441V228.5ZM452.191 228.5H460.566V229.5H452.191V228.5ZM468.941 228.5H477.316V229.5H468.941V228.5Z" fill="url(#paint46_linear_19_2)"/>
</g>
<g opacity="0.2">
<path d="M446.089 212.808V205.257H441.086C439.953 205.037 437.688 204.049 437.688 201.859C437.688 199.669 437.688 195.219 437.688 193.269H433.818C433.566 193.269 433.062 193.004 433.062 191.947C433.818 190.154 436.178 184.49 436.178 183.074C436.461 181.564 436.461 180.997 436.461 180.337C436.461 179.676 436.461 177.788 437.121 175.522C437.617 173.823 439.009 169.387 441.275 166.744C442.88 164.824 447.303 161.625 451.942 160.985C454.679 160.608 457.322 160.985 460.532 161.552" stroke="white" stroke-width="1.51032" stroke-linecap="round" stroke-linejoin="round"/>
<path d="M466.008 212.62V203.936C467.801 202.174 471.672 198.121 472.804 196.006C474.22 193.363 476.674 187.983 476.958 184.679C477.241 181.375 477.241 178.543 476.958 177.599" stroke="white" stroke-width="1.51032" stroke-linecap="round" stroke-linejoin="round"/>
<circle cx="451.565" cy="169.481" r="2.64307" stroke="white" stroke-width="1.51032"/>
<circle cx="463.458" cy="161.74" r="2.64307" stroke="white" stroke-width="1.51032"/>
<circle cx="472.52" cy="165.327" r="2.64307" stroke="white" stroke-width="1.51032"/>
<circle cx="476.295" cy="174.578" r="2.64307" stroke="white" stroke-width="1.51032"/>
<circle cx="467.799" cy="185.906" r="2.64307" stroke="white" stroke-width="1.51032"/>
<path d="M458.076 212.62V203.18M474.407 176.467L472.047 178.638L466.761 177.411L458.076 186.095V203.18M458.076 203.18L467.61 194.118V188.738" stroke="white" stroke-width="1.51032" stroke-linecap="round" stroke-linejoin="round"/>
<path d="M452.508 212.714V185.151L470.443 167.405" stroke="white" stroke-width="1.51032" stroke-linecap="round" stroke-linejoin="round"/>
<path d="M447.221 199.782V184.396L451.657 180.022M461.38 163.534L459.209 165.8L460.625 171.18L451.657 180.022M451.657 180.022V172.219" stroke="white" stroke-width="1.51032" stroke-linecap="round" stroke-linejoin="round"/>
</g>
<g opacity="0.2">
<path d="M1335.11 169.961V169.275C1334.73 169.275 1334.42 169.582 1334.42 169.961L1335.11 169.961ZM1368.85 169.961H1369.53L1368.85 169.275V169.961ZM1368.85 193.993L1369.4 194.395L1369.53 193.993H1368.85ZM1361.65 203.936V204.621L1362.21 204.337L1361.65 203.936ZM1335.11 203.936L1334.42 203.936L1335.11 204.621V203.936ZM1368.16 169.961V193.993H1369.53V169.961H1368.16ZM1368.29 193.592L1361.1 203.534L1362.21 204.337L1369.4 194.395L1368.29 193.592ZM1361.65 203.25H1335.11V204.621H1361.65V203.25ZM1335.11 170.647H1368.85V169.275H1335.11V170.647ZM1335.79 203.936L1335.79 169.961L1334.42 169.961L1334.42 203.936L1335.79 203.936Z" fill="white"/>
<path d="M1341.28 164.715C1342.75 164.715 1343.94 163.525 1343.94 162.058C1343.94 160.59 1342.75 159.4 1341.28 159.4C1339.82 159.4 1338.63 160.59 1338.63 162.058C1338.63 163.525 1339.82 164.715 1341.28 164.715ZM1341.28 164.715V170.029" stroke="white" stroke-width="1.37143"/>
<path d="M1352.08 164.715C1353.55 164.715 1354.74 163.525 1354.74 162.058C1354.74 160.59 1353.55 159.4 1352.08 159.4C1350.62 159.4 1349.43 160.59 1349.43 162.058C1349.43 163.525 1350.62 164.715 1352.08 164.715ZM1352.08 164.715V170.029" stroke="white" stroke-width="1.37143"/>
<path d="M1352.09 209.286C1350.62 209.286 1349.43 210.475 1349.43 211.943C1349.43 213.41 1350.62 214.6 1352.09 214.6C1353.55 214.6 1354.74 213.41 1354.74 211.943C1354.74 210.475 1353.55 209.286 1352.09 209.286ZM1352.09 209.286L1352.09 203.972" stroke="white" stroke-width="1.37143"/>
<path d="M1372.33 203.791C1371.39 204.915 1371.54 206.591 1372.66 207.535C1373.79 208.478 1375.46 208.331 1376.41 207.207C1377.35 206.083 1377.2 204.407 1376.08 203.464C1374.95 202.52 1373.28 202.667 1372.33 203.791ZM1372.33 203.791L1365.71 198.743" stroke="white" stroke-width="1.37143"/>
<path d="M1343.24 192.972C1343.12 192.972 1343.03 192.934 1342.95 192.857C1342.88 192.781 1342.84 192.686 1342.84 192.572L1342.88 192.4L1347.45 180.114C1347.57 179.797 1347.8 179.638 1348.13 179.638H1350.23C1350.56 179.638 1350.79 179.797 1350.91 180.114L1355.48 192.4L1355.52 192.572C1355.52 192.686 1355.48 192.781 1355.39 192.857C1355.31 192.934 1355.22 192.972 1355.12 192.972H1353.43C1353.16 192.972 1352.98 192.851 1352.88 192.61L1352 190.305H1346.36L1345.48 192.61C1345.38 192.851 1345.2 192.972 1344.93 192.972H1343.24ZM1347.03 188.095H1351.33L1349.18 182.229L1347.03 188.095ZM1357.74 192.972C1357.61 192.972 1357.5 192.927 1357.42 192.838C1357.33 192.749 1357.28 192.642 1357.28 192.515V180.095C1357.28 179.956 1357.33 179.848 1357.42 179.771C1357.5 179.683 1357.61 179.638 1357.74 179.638H1359.57C1359.71 179.638 1359.82 179.683 1359.89 179.771C1359.98 179.848 1360.02 179.956 1360.02 180.095V192.515C1360.02 192.642 1359.98 192.749 1359.89 192.838C1359.82 192.927 1359.71 192.972 1359.57 192.972H1357.74Z" fill="white"/>
<path d="M1341.29 209.286C1339.82 209.286 1338.63 210.475 1338.63 211.943C1338.63 213.41 1339.82 214.6 1341.29 214.6C1342.75 214.6 1343.94 213.41 1343.94 211.943C1343.94 210.475 1342.75 209.286 1341.29 209.286ZM1341.29 209.286L1341.29 203.972" stroke="white" stroke-width="1.37143"/>
<path d="M1362.88 164.715C1364.35 164.715 1365.54 163.525 1365.54 162.058C1365.54 160.59 1364.35 159.4 1362.88 159.4C1361.42 159.4 1360.23 160.59 1360.23 162.058C1360.23 163.525 1361.42 164.715 1362.88 164.715ZM1362.88 164.715V170.029" stroke="white" stroke-width="1.37143"/>
<path d="M1329.71 197.886C1329.71 196.419 1328.52 195.229 1327.06 195.229C1325.59 195.229 1324.4 196.419 1324.4 197.886C1324.4 199.354 1325.59 200.543 1327.06 200.543C1328.52 200.543 1329.71 199.354 1329.71 197.886ZM1329.71 197.886L1335.03 197.886" stroke="white" stroke-width="1.37143"/>
<path d="M1329.71 187.086C1329.71 185.619 1328.52 184.429 1327.06 184.429C1325.59 184.429 1324.4 185.619 1324.4 187.086C1324.4 188.554 1325.59 189.743 1327.06 189.743C1328.52 189.743 1329.71 188.554 1329.71 187.086ZM1329.71 187.086L1335.03 187.086" stroke="white" stroke-width="1.37143"/>
<path d="M1329.71 176.286C1329.71 174.818 1328.52 173.629 1327.06 173.629C1325.59 173.629 1324.4 174.818 1324.4 176.286C1324.4 177.753 1325.59 178.943 1327.06 178.943C1328.52 178.943 1329.71 177.753 1329.71 176.286ZM1329.71 176.286L1335.03 176.286" stroke="white" stroke-width="1.37143"/>
<path d="M1374.29 176.286C1374.29 177.754 1375.47 178.943 1376.94 178.943C1378.41 178.943 1379.6 177.754 1379.6 176.286C1379.6 174.819 1378.41 173.629 1376.94 173.629C1375.47 173.629 1374.29 174.819 1374.29 176.286ZM1374.29 176.286L1368.97 176.286" stroke="white" stroke-width="1.37143"/>
<path d="M1374.29 187.086C1374.29 188.553 1375.47 189.743 1376.94 189.743C1378.41 189.743 1379.6 188.553 1379.6 187.086C1379.6 185.618 1378.41 184.429 1376.94 184.429C1375.47 184.429 1374.29 185.618 1374.29 187.086ZM1374.29 187.086L1368.97 187.086" stroke="white" stroke-width="1.37143"/>
</g>
<path d="M511.501 244.033L430.001 244.033C413.432 244.033 400.001 257.464 400.001 274.033L400.001 311.5M343.047 358L370.001 358C386.569 358 400.001 344.569 400.001 328V290.533" stroke="url(#paint47_linear_19_2)" stroke-linecap="round"/>
<path d="M1190.5 129.534L1266.02 129.534C1282.58 129.534 1296.02 142.965 1296.02 159.534L1296.02 186.5" stroke="url(#paint48_linear_19_2)"/>
<path d="M1296 213.515L1296.5 213.515V213.515L1296 213.515ZM1326 243.515L1326 244.015H1326L1326 243.515ZM1354.5 243.015C1354.78 243.015 1355 243.239 1355 243.515C1355 243.791 1354.78 244.015 1354.5 244.015L1354.5 243.015ZM1296.5 183L1296.5 213.515L1295.5 213.515L1295.5 183L1296.5 183ZM1326 243.015L1354.5 243.015L1354.5 244.015L1326 244.015L1326 243.015ZM1296.5 213.515C1296.5 229.807 1309.71 243.015 1326 243.015L1326 244.015C1309.16 244.015 1295.5 230.36 1295.5 213.515L1296.5 213.515Z" fill="url(#paint49_linear_19_2)"/>
<g clip-path="url(#clip1_19_2)">
<path opacity="0.8" d="M553.342 28.8759C552.908 29.7442 553.776 30.6126 554.645 30.1784C554.789 30.0337 554.934 29.889 555.079 29.7442C555.513 28.8758 554.645 28.0075 553.776 28.4417C553.487 28.5864 553.342 28.7311 553.342 28.8759Z" fill="white"/>
<path opacity="0.5" d="M546.108 37.5604C545.673 38.4288 546.542 39.2972 547.41 38.863C547.555 38.7183 547.7 38.5735 547.844 38.4288C548.279 37.5604 547.41 36.692 546.542 37.1262C546.252 37.271 546.108 37.4157 546.108 37.5604Z" fill="white"/>
<path opacity="0.1" d="M514.266 98.3466C513.832 99.2149 514.7 100.083 515.568 99.6491C515.713 99.5044 515.858 99.3597 516.003 99.2149C516.437 98.3465 515.568 97.4782 514.7 97.9124C514.411 98.0571 514.266 98.2018 514.266 98.3466Z" fill="white"/>
<path opacity="0.1" d="M462.162 182.29C461.728 183.158 462.597 184.027 463.465 183.592C463.61 183.448 463.754 183.303 463.899 183.158C464.333 182.29 463.465 181.422 462.597 181.856C462.307 182 462.162 182.145 462.162 182.29Z" fill="white"/>
<path d="M625.709 542.668C625.275 543.536 626.143 544.405 627.012 543.97C627.157 543.826 627.301 543.681 627.446 543.536C627.88 542.668 627.012 541.799 626.143 542.234C625.854 542.378 625.709 542.523 625.709 542.668Z" fill="white"/>
<path opacity="0.5" d="M631.498 519.511C631.064 520.379 631.932 521.248 632.801 520.814C632.946 520.669 633.09 520.524 633.235 520.379C633.669 519.511 632.801 518.643 631.932 519.077C631.643 519.222 631.498 519.366 631.498 519.511Z" fill="white"/>
<path opacity="0.1" d="M615.576 509.38C615.142 510.248 616.011 511.117 616.879 510.682C617.024 510.538 617.168 510.393 617.313 510.248C617.747 509.38 616.879 508.511 616.011 508.946C615.721 509.09 615.576 509.235 615.576 509.38Z" fill="white"/>
<path d="M763.202 447.146C762.768 448.014 763.637 448.883 764.505 448.448C764.65 448.304 764.794 448.159 764.939 448.014C765.373 447.146 764.505 446.277 763.637 446.712C763.347 446.856 763.202 447.001 763.202 447.146Z" fill="white"/>
<path d="M797.937 412.411C797.503 413.279 798.371 414.148 799.239 413.714C799.384 413.569 799.529 413.424 799.674 413.279C800.108 412.411 799.239 411.543 798.371 411.977C798.082 412.122 797.937 412.266 797.937 412.411Z" fill="white"/>
<path d="M919.51 386.359C919.076 387.228 919.944 388.096 920.813 387.662C920.957 387.517 921.102 387.372 921.247 387.228C921.681 386.359 920.813 385.491 919.944 385.925C919.655 386.07 919.51 386.215 919.51 386.359Z" fill="white"/>
<path d="M978.85 450.041C978.416 450.909 979.284 451.777 980.152 451.343C980.297 451.198 980.442 451.054 980.587 450.909C981.021 450.041 980.152 449.172 979.284 449.606C978.994 449.751 978.85 449.896 978.85 450.041Z" fill="white"/>
<path d="M884.776 584.64C884.341 585.508 885.21 586.376 886.078 585.942C886.223 585.797 886.368 585.653 886.512 585.508C886.947 584.64 886.078 583.771 885.21 584.205C884.92 584.35 884.776 584.495 884.776 584.64Z" fill="white"/>
<path d="M1094.63 583.192C1094.2 584.061 1095.07 584.929 1095.94 584.495C1096.08 584.35 1096.23 584.205 1096.37 584.061C1096.8 583.192 1095.94 582.324 1095.07 582.758C1094.78 582.903 1094.63 583.047 1094.63 583.192Z" fill="white"/>
<path d="M1290.02 551.352C1289.58 552.22 1290.45 553.088 1291.32 552.654C1291.47 552.509 1291.61 552.365 1291.76 552.22C1292.19 551.352 1291.32 550.483 1290.45 550.917C1290.16 551.062 1290.02 551.207 1290.02 551.352Z" fill="white"/>
<path d="M1447.77 564.377C1447.34 565.246 1448.21 566.114 1449.08 565.68C1449.22 565.535 1449.37 565.39 1449.51 565.246C1449.95 564.377 1449.08 563.509 1448.21 563.943C1447.92 564.088 1447.77 564.233 1447.77 564.377Z" fill="white"/>
<path opacity="0.5" d="M1486.85 557.141C1486.42 558.009 1487.29 558.878 1488.15 558.443C1488.3 558.299 1488.44 558.154 1488.59 558.009C1489.02 557.141 1488.15 556.272 1487.29 556.707C1487 556.851 1486.85 556.996 1486.85 557.141Z" fill="white"/>
<path opacity="0.5" d="M1384.09 484.776C1383.66 485.644 1384.53 486.513 1385.4 486.078C1385.54 485.934 1385.69 485.789 1385.83 485.644C1386.26 484.776 1385.4 483.907 1384.53 484.342C1384.24 484.486 1384.09 484.631 1384.09 484.776Z" fill="white"/>
<path opacity="0.5" d="M1310.28 445.699C1309.85 446.567 1310.72 447.435 1311.58 447.001C1311.73 446.857 1311.87 446.712 1312.02 446.567C1312.45 445.699 1311.58 444.83 1310.72 445.264C1310.43 445.409 1310.28 445.554 1310.28 445.699Z" fill="white"/>
<path opacity="0.7" d="M1347.91 415.305C1347.48 416.174 1348.35 417.042 1349.21 416.608C1349.36 416.463 1349.5 416.319 1349.65 416.174C1350.08 415.305 1349.21 414.437 1348.35 414.871C1348.06 415.016 1347.91 415.161 1347.91 415.305Z" fill="white"/>
<path d="M1180.02 337.151C1179.59 338.02 1180.46 338.888 1181.33 338.454C1181.47 338.309 1181.62 338.164 1181.76 338.02C1182.2 337.151 1181.33 336.283 1180.46 336.717C1180.17 336.862 1180.02 337.007 1180.02 337.151Z" fill="white"/>
<path opacity="0.8" d="M1133.71 250.313C1133.28 251.181 1134.15 252.05 1135.01 251.616C1135.16 251.471 1135.3 251.326 1135.45 251.181C1135.88 250.313 1135.01 249.445 1134.15 249.879C1133.86 250.024 1133.71 250.168 1133.71 250.313Z" fill="white"/>
<path opacity="0.1" d="M1023.72 253.208C1023.28 254.076 1024.15 254.945 1025.02 254.51C1025.16 254.366 1025.31 254.221 1025.45 254.076C1025.89 253.208 1025.02 252.339 1024.15 252.774C1023.86 252.918 1023.72 253.063 1023.72 253.208Z" fill="white"/>
<path opacity="0.5" d="M1239.36 193.868C1238.93 194.736 1239.8 195.605 1240.67 195.171C1240.81 195.026 1240.96 194.881 1241.1 194.736C1241.53 193.868 1240.67 193 1239.8 193.434C1239.51 193.579 1239.36 193.723 1239.36 193.868Z" fill="white"/>
<path d="M1256.73 160.58C1256.3 161.448 1257.17 162.317 1258.03 161.883C1258.18 161.738 1258.32 161.593 1258.47 161.448C1258.9 160.58 1258.03 159.712 1257.17 160.146C1256.88 160.291 1256.73 160.435 1256.73 160.58Z" fill="white"/>
<path d="M1249.5 37.5596C1249.06 38.428 1249.93 39.2963 1250.8 38.8621C1250.94 38.7174 1251.09 38.5727 1251.23 38.4279C1251.67 37.5596 1250.8 36.6912 1249.93 37.1254C1249.64 37.2701 1249.5 37.4148 1249.5 37.5596Z" fill="white"/>
<path opacity="0.05" d="M1233.57 14.4032C1233.14 15.2716 1234.01 16.14 1234.88 15.7058C1235.02 15.561 1235.17 15.4163 1235.31 15.2716C1235.75 14.4032 1234.88 13.5348 1234.01 13.969C1233.72 14.1137 1233.57 14.2585 1233.57 14.4032Z" fill="white"/>
<path opacity="0.5" d="M1816.84 402.28C1816.4 403.148 1817.27 404.016 1818.14 403.582C1818.28 403.437 1818.43 403.293 1818.57 403.148C1819.01 402.28 1818.14 401.411 1817.27 401.845C1816.98 401.99 1816.84 402.135 1816.84 402.28Z" fill="white"/>
<path opacity="0.1" d="M1758.94 386.359C1758.51 387.228 1759.38 388.096 1760.25 387.662C1760.39 387.517 1760.54 387.372 1760.68 387.228C1761.12 386.359 1760.25 385.491 1759.38 385.925C1759.09 386.07 1758.94 386.215 1758.94 386.359Z" fill="white"/>
<path d="M1783.55 377.676C1783.11 378.544 1783.98 379.412 1784.85 378.978C1785 378.833 1785.14 378.689 1785.29 378.544C1785.72 377.676 1784.85 376.807 1783.98 377.241C1783.69 377.386 1783.55 377.531 1783.55 377.676Z" fill="white"/>
<path d="M1722.76 366.097C1722.33 366.966 1723.2 367.834 1724.06 367.4C1724.21 367.255 1724.35 367.11 1724.5 366.966C1724.93 366.097 1724.06 365.229 1723.2 365.663C1722.91 365.808 1722.76 365.952 1722.76 366.097Z" fill="white"/>
<path d="M1725.66 276.365C1725.22 277.233 1726.09 278.101 1726.96 277.667C1727.1 277.522 1727.25 277.378 1727.39 277.233C1727.83 276.365 1726.96 275.496 1726.09 275.93C1725.8 276.075 1725.66 276.22 1725.66 276.365Z" fill="white"/>
<path opacity="0.5" d="M1867.49 241.629C1867.06 242.498 1867.93 243.366 1868.8 242.932C1868.94 242.787 1869.08 242.642 1869.23 242.498C1869.66 241.629 1868.8 240.761 1867.93 241.195C1867.64 241.34 1867.49 241.485 1867.49 241.629Z" fill="white"/>
<path opacity="0.1" d="M1918.15 257.55C1917.71 258.418 1918.58 259.286 1919.45 258.852C1919.59 258.708 1919.74 258.563 1919.88 258.418C1920.32 257.55 1919.45 256.681 1918.58 257.115C1918.29 257.26 1918.15 257.405 1918.15 257.55Z" fill="white"/>
<path d="M1845.78 40.4542C1845.35 41.3226 1846.22 42.191 1847.09 41.7568C1847.23 41.6121 1847.37 41.4673 1847.52 41.3226C1847.95 40.4542 1847.09 39.5858 1846.22 40.02C1845.93 40.1648 1845.78 40.3095 1845.78 40.4542Z" fill="white"/>
<path opacity="0.1" d="M1782.1 70.8475C1781.67 71.7159 1782.54 72.5843 1783.4 72.1501C1783.55 72.0054 1783.69 71.8606 1783.84 71.7159C1784.27 70.8475 1783.4 69.9792 1782.54 70.4133C1782.25 70.5581 1782.1 70.7028 1782.1 70.8475Z" fill="white"/>
<path opacity="0.25" d="M1683.68 41.9012C1683.25 42.7696 1684.12 43.638 1684.99 43.2038C1685.13 43.0591 1685.28 42.9143 1685.42 42.7696C1685.86 41.9012 1684.99 41.0329 1684.12 41.4671C1683.83 41.6118 1683.68 41.7565 1683.68 41.9012Z" fill="white"/>
<path opacity="0.5" d="M1511.46 85.3202C1511.02 86.1886 1511.89 87.0569 1512.76 86.6228C1512.9 86.478 1513.05 86.3333 1513.19 86.1886C1513.63 85.3202 1512.76 84.4518 1511.89 84.886C1511.6 85.0307 1511.46 85.1755 1511.46 85.3202Z" fill="white"/>
<path opacity="0.5" d="M269.674 180.843C269.24 181.711 270.108 182.579 270.977 182.145C271.121 182 271.266 181.856 271.411 181.711C271.845 180.843 270.977 179.974 270.108 180.408C269.819 180.553 269.674 180.698 269.674 180.843Z" fill="white"/>
<path d="M281.252 287.943C280.818 288.812 281.686 289.68 282.555 289.246C282.7 289.101 282.844 288.956 282.989 288.812C283.423 287.943 282.555 287.075 281.686 287.509C281.397 287.654 281.252 287.799 281.252 287.943Z" fill="white"/>
<path d="M343.485 308.205C343.05 309.073 343.919 309.942 344.787 309.508C344.932 309.363 345.077 309.218 345.221 309.073C345.656 308.205 344.787 307.337 343.919 307.771C343.629 307.915 343.485 308.06 343.485 308.205Z" fill="white"/>
<path opacity="0.5" d="M106.127 331.362C105.693 332.231 106.561 333.099 107.43 332.665C107.575 332.52 107.719 332.375 107.864 332.231C108.298 331.362 107.43 330.494 106.561 330.928C106.272 331.073 106.127 331.217 106.127 331.362Z" fill="white"/>
<path opacity="0.1" d="M42.4475 319.784C42.0133 320.652 42.8817 321.52 43.7501 321.086C43.8948 320.941 44.0396 320.797 44.1843 320.652C44.6185 319.784 43.7501 318.915 42.8817 319.349C42.5923 319.494 42.4475 319.639 42.4475 319.784Z" fill="white"/>
<path d="M126.391 486.223C125.957 487.091 126.825 487.96 127.693 487.526C127.838 487.381 127.983 487.236 128.128 487.091C128.562 486.223 127.693 485.355 126.825 485.789C126.536 485.934 126.391 486.078 126.391 486.223Z" fill="white"/>
<path opacity="0.5" d="M223.358 565.825C222.923 566.693 223.792 567.561 224.66 567.127C224.805 566.982 224.95 566.838 225.094 566.693C225.529 565.825 224.66 564.956 223.792 565.39C223.502 565.535 223.358 565.68 223.358 565.825Z" fill="white"/>
<path d="M337.696 383.465C337.262 384.333 338.13 385.202 338.998 384.767C339.143 384.623 339.288 384.478 339.433 384.333C339.867 383.465 338.998 382.596 338.13 383.031C337.841 383.175 337.696 383.32 337.696 383.465Z" fill="white"/>
<path d="M59.8147 7.16687C59.3805 8.03525 60.2489 8.90362 61.1173 8.46943C61.262 8.3247 61.4067 8.17997 61.5515 8.03524C61.9857 7.16686 61.1173 6.29849 60.2489 6.73268C59.9594 6.87741 59.8147 7.02214 59.8147 7.16687Z" fill="white"/>
</g>
<g opacity="0.41" filter="url(#filter0_f_19_2)">
<path d="M534.432 30.5259L347.612 -379.746C343.379 -389.042 354.165 -397.955 362.497 -392.047L1284.69 261.823C1294.06 268.467 1286.67 283.086 1275.76 279.473L540.389 35.8745C537.745 34.9987 535.586 33.0604 534.432 30.5259Z" fill="#2413D2"/>
</g>
<g opacity="0.41" filter="url(#filter1_f_19_2)">
<path d="M534.432 30.5259L347.612 -379.746C343.379 -389.042 354.165 -397.955 362.497 -392.047L1284.69 261.823C1294.06 268.467 1286.67 283.086 1275.76 279.473L540.389 35.8745C537.745 34.9987 535.586 33.0604 534.432 30.5259Z" fill="#2413D2"/>
</g>
<g opacity="0.18" filter="url(#filter2_f_19_2)">
<path d="M534.432 30.5259L347.612 -379.746C343.379 -389.042 354.165 -397.955 362.497 -392.047L1284.69 261.823C1294.06 268.467 1286.67 283.086 1275.76 279.473L540.389 35.8745C537.745 34.9987 535.586 33.0604 534.432 30.5259Z" fill="#2413D2"/>
</g>
<g opacity="0.41" filter="url(#filter3_f_19_2)">
<path d="M680.034 202.683L510.99 -283.309C507.739 -292.654 518.582 -300.539 526.47 -294.568L1237.48 243.684C1245.52 249.769 1240.52 262.578 1230.49 261.61L688.519 209.351C684.631 208.976 681.318 206.372 680.034 202.683Z" fill="#2413D2"/>
</g>
<g opacity="0.41" filter="url(#filter4_f_19_2)">
<path d="M680.034 202.683L510.99 -283.309C507.739 -292.654 518.582 -300.539 526.47 -294.568L1237.48 243.684C1245.52 249.769 1240.52 262.578 1230.49 261.61L688.519 209.351C684.631 208.976 681.318 206.372 680.034 202.683Z" fill="#2413D2"/>
</g>
<g opacity="0.41" filter="url(#filter5_f_19_2)">
<path d="M680.034 202.683L510.99 -283.309C507.739 -292.654 518.582 -300.539 526.47 -294.568L1237.48 243.684C1245.52 249.769 1240.52 262.578 1230.49 261.61L688.519 209.351C684.631 208.976 681.318 206.372 680.034 202.683Z" fill="#2413D2"/>
</g>
<g opacity="0.41" filter="url(#filter6_f_19_2)">
<path d="M680.034 202.683L510.99 -283.309C507.739 -292.654 518.582 -300.539 526.47 -294.568L1237.48 243.684C1245.52 249.769 1240.52 262.578 1230.49 261.61L688.519 209.351C684.631 208.976 681.318 206.372 680.034 202.683Z" fill="#2413D2"/>
</g>
<g opacity="0.41" filter="url(#filter7_f_19_2)">
<path d="M766.859 153.002L525.94 -269.279C520.481 -278.848 532.242 -288.92 540.857 -282.055L1162.41 213.218C1170.58 219.727 1164.56 232.827 1154.3 230.859L773.662 157.867C770.792 157.317 768.307 155.539 766.859 153.002Z" fill="#4E3EFB"/>
</g>
<g opacity="0.41" filter="url(#filter8_f_19_2)">
<path d="M766.859 153.002L525.94 -269.279C520.481 -278.848 532.242 -288.92 540.857 -282.055L1162.41 213.218C1170.58 219.727 1164.56 232.827 1154.3 230.859L773.662 157.867C770.792 157.317 768.307 155.539 766.859 153.002Z" fill="#4E3EFB"/>
</g>
<g opacity="0.41" filter="url(#filter9_f_19_2)">
<path d="M766.859 153.002L525.94 -269.279C520.481 -278.848 532.242 -288.92 540.857 -282.055L1162.41 213.218C1170.58 219.727 1164.56 232.827 1154.3 230.859L773.662 157.867C770.792 157.317 768.307 155.539 766.859 153.002Z" fill="#4E3EFB"/>
</g>
<g opacity="0.65">
<g opacity="0.41" filter="url(#filter10_f_19_2)">
<path d="M679.963 171.398L469.001 -322.851C464.609 -333.141 477.851 -341.778 485.497 -333.612L991.289 206.534C997.787 213.474 991.845 224.712 982.451 223.25L687.622 177.353C684.212 176.823 681.317 174.572 679.963 171.398Z" fill="#A9FDCA"/>
</g>
<g opacity="0.41" filter="url(#filter11_f_19_2)">
<path d="M689.534 119.461L530.098 -254.069C525.707 -264.359 538.948 -272.996 546.595 -264.83L928.848 143.387C935.347 150.327 929.405 161.566 920.011 160.103L697.193 125.417C693.783 124.886 690.888 122.635 689.534 119.461Z" fill="#A9FDCA"/>
</g>
<g opacity="0.41" filter="url(#filter12_f_19_2)">
<path d="M694.37 93.2234L560.966 -219.32C556.574 -229.61 569.815 -238.247 577.462 -230.081L897.304 111.486C903.803 118.426 897.861 129.664 888.467 128.202L702.029 99.1787C698.619 98.6479 695.724 96.3969 694.37 93.2234Z" fill="#A9FDCA"/>
</g>
<g opacity="0.41" filter="url(#filter13_f_19_2)">
<path d="M698.079 73.09L584.649 -192.657C580.257 -202.946 593.499 -211.584 601.146 -203.418L873.099 87.0068C879.597 93.9468 873.656 105.185 864.261 103.723L705.738 79.0453C702.328 78.5146 699.433 76.2636 698.079 73.09Z" fill="#A9FDCA"/>
</g>
<g opacity="0.41" filter="url(#filter14_f_19_2)">
<path d="M700.989 57.293L603.231 -171.737C598.839 -182.027 612.081 -190.664 619.728 -182.498L854.106 67.8001C860.605 74.7402 854.663 85.9787 845.269 84.5163L708.648 63.2483C705.238 62.7175 702.343 60.4665 700.989 57.293Z" fill="#A9FDCA"/>
</g>
</g>
<g opacity="0.1" filter="url(#filter15_f_19_2)">
<path d="M700.989 57.2929L603.231 -171.737C598.839 -182.027 612.081 -190.664 619.728 -182.498L854.106 67.8C860.605 74.74 854.663 85.9786 845.269 84.5161L708.648 63.2481C705.239 62.7174 702.344 60.4664 700.989 57.2929Z" fill="white"/>
</g>
<g opacity="0.68">
<g opacity="0.1" filter="url(#filter16_f_19_2)">
<path d="M864.165 167.283L489.234 -306L964.793 170.131C971.741 177.087 965.531 188.843 955.869 187.025L870.154 170.901C867.787 170.455 865.66 169.171 864.165 167.283Z" fill="white"/>
</g>
<g opacity="0.1" filter="url(#filter17_f_19_2)">
<path d="M864.165 167.283L489.234 -306L964.793 170.131C971.741 177.087 965.531 188.843 955.869 187.025L870.154 170.901C867.787 170.455 865.66 169.171 864.165 167.283Z" fill="white"/>
</g>
<g opacity="0.1" filter="url(#filter18_f_19_2)">
<path d="M841.814 126.957L533.617 -261.618L920.981 125.746C927.935 132.7 921.729 144.461 912.064 142.645L847.802 130.571C845.436 130.126 843.31 128.843 841.814 126.957Z" fill="white"/>
</g>
<g opacity="0.1" filter="url(#filter19_f_19_2)">
<path d="M826.405 99.7085L563.606 -231.63L890.994 95.7584C897.947 102.712 891.741 114.473 882.076 112.657L832.393 103.322C830.027 102.878 827.901 101.595 826.405 99.7085Z" fill="white"/>
</g>
<g opacity="0.1" filter="url(#filter20_f_19_2)">
<path d="M816.542 82.2694L582.797 -212.437L871.801 76.5662C878.754 83.5198 872.548 95.2812 862.883 93.4653L822.53 85.8833C820.164 85.4388 818.038 84.1556 816.542 82.2694Z" fill="white"/>
</g>
<g opacity="0.1" filter="url(#filter21_f_19_2)">
<path d="M816.542 82.2694L582.797 -212.437L871.801 76.5662C878.754 83.5198 872.548 95.2812 862.883 93.4653L822.53 85.8833C820.164 85.4388 818.038 84.1556 816.542 82.2694Z" fill="white"/>
</g>
<g opacity="0.1" filter="url(#filter22_f_19_2)">
<path d="M816.542 82.2694L582.797 -212.437L871.801 76.5662C878.754 83.5198 872.548 95.2812 862.883 93.4653L822.53 85.8833C820.164 85.4388 818.038 84.1556 816.542 82.2694Z" fill="white"/>
</g>
<g opacity="0.1" filter="url(#filter23_f_19_2)">
<path d="M826.405 99.7085L563.606 -231.63L890.994 95.7584C897.947 102.712 891.741 114.473 882.076 112.657L832.393 103.322C830.027 102.878 827.901 101.595 826.405 99.7085Z" fill="white"/>
</g>
<g opacity="0.1" filter="url(#filter24_f_19_2)">
<path d="M841.814 126.957L533.617 -261.618L920.981 125.746C927.935 132.7 921.729 144.461 912.064 142.645L847.802 130.571C845.436 130.126 843.31 128.843 841.814 126.957Z" fill="white"/>
</g>
<g opacity="0.1" filter="url(#filter25_f_19_2)">
<path d="M864.165 167.283L489.234 -306L964.793 170.131C971.741 177.087 965.531 188.843 955.869 187.025L870.154 170.901C867.787 170.455 865.66 169.171 864.165 167.283Z" fill="white"/>
</g>
<g opacity="0.1" filter="url(#filter26_f_19_2)">
<path d="M864.165 167.283L489.234 -306L964.793 170.131C971.741 177.087 965.531 188.843 955.869 187.025L870.154 170.901C867.787 170.455 865.66 169.171 864.165 167.283Z" fill="white"/>
</g>
<g opacity="0.1" filter="url(#filter27_f_19_2)">
<path d="M864.165 167.283L489.234 -306L964.793 170.131C971.741 177.087 965.531 188.843 955.869 187.025L870.154 170.901C867.787 170.455 865.66 169.171 864.165 167.283Z" fill="white"/>
</g>
</g>
<g opacity="0.1" filter="url(#filter28_f_19_2)">
<path d="M986.894 140.149L665.141 -179.641L1056.75 129.027C1064.48 135.114 1059.7 147.521 1049.89 146.858L993.269 143.033C990.866 142.871 988.602 141.847 986.894 140.149Z" fill="#00C2FF"/>
</g>
<g opacity="0.1" filter="url(#filter29_f_19_2)">
<path d="M986.894 140.149L665.141 -179.641L1056.75 129.027C1064.48 135.114 1059.7 147.521 1049.89 146.858L993.269 143.033C990.866 142.871 988.602 141.847 986.894 140.149Z" fill="#00C2FF"/>
</g>
<g opacity="0.1" filter="url(#filter30_f_19_2)">
<path d="M986.894 140.149L665.141 -179.641L1056.75 129.027C1064.48 135.114 1059.7 147.521 1049.89 146.858L993.269 143.033C990.866 142.871 988.602 141.847 986.894 140.149Z" fill="#00C2FF"/>
</g>
<g opacity="0.1" filter="url(#filter31_f_19_2)">
<path d="M986.894 140.149L665.141 -179.641L1056.75 129.027C1064.48 135.114 1059.7 147.521 1049.89 146.858L993.269 143.033C990.866 142.871 988.602 141.847 986.894 140.149Z" fill="#00C2FF"/>
</g>
<g opacity="0.1" filter="url(#filter32_f_19_2)">
<path d="M986.894 140.149L665.141 -179.641L1056.75 129.027C1064.48 135.114 1059.7 147.521 1049.89 146.858L993.269 143.033C990.866 142.871 988.602 141.847 986.894 140.149Z" fill="#00C2FF"/>
</g>
<g opacity="0.1" filter="url(#filter33_f_19_2)">
<path d="M986.894 140.149L665.141 -179.641L1056.75 129.027C1064.48 135.114 1059.7 147.521 1049.89 146.858L993.269 143.033C990.866 142.871 988.602 141.847 986.894 140.149Z" fill="#00C2FF"/>
</g>
<g opacity="0.1" filter="url(#filter34_f_19_2)">
<path d="M986.894 140.149L665.141 -179.641L1056.75 129.027C1064.48 135.114 1059.7 147.521 1049.89 146.858L993.269 143.033C990.866 142.871 988.602 141.847 986.894 140.149Z" fill="#00C2FF"/>
</g>
<g opacity="0.1" filter="url(#filter35_f_19_2)">
<path d="M986.894 140.149L665.141 -179.641L1056.75 129.027C1064.48 135.114 1059.7 147.521 1049.89 146.858L993.269 143.033C990.866 142.871 988.602 141.847 986.894 140.149Z" fill="#00C2FF"/>
</g>
<g opacity="0.1" filter="url(#filter36_f_19_2)">
<path d="M985.739 155.322L538.141 -289.545L1091.52 146.627C1099.24 152.713 1094.47 165.12 1084.66 164.458L992.114 158.207C989.711 158.044 987.447 157.02 985.739 155.322Z" fill="white"/>
</g>
<g opacity="0.1" filter="url(#filter37_f_19_2)">
<path d="M985.739 155.322L538.141 -289.545L1091.52 146.627C1099.24 152.713 1094.47 165.12 1084.66 164.458L992.114 158.207C989.711 158.044 987.447 157.02 985.739 155.322Z" fill="white"/>
</g>
<g opacity="0.1" filter="url(#filter38_f_19_2)">
<path d="M985.739 155.322L538.141 -289.545L1091.52 146.627C1099.24 152.713 1094.47 165.12 1084.66 164.458L992.114 158.207C989.711 158.044 987.447 157.02 985.739 155.322Z" fill="white"/>
</g>
<g opacity="0.1" filter="url(#filter39_f_19_2)">
<path d="M952.77 110.355L597.449 -242.798L1032.21 99.8809C1039.93 105.967 1035.16 118.374 1025.35 117.712L959.146 113.24C956.743 113.077 954.479 112.053 952.77 110.355Z" fill="white"/>
</g>
<g opacity="0.1" filter="url(#filter40_f_19_2)">
<path d="M952.77 110.355L597.449 -242.798L1032.21 99.8809C1039.93 105.967 1035.16 118.374 1025.35 117.712L959.146 113.24C956.743 113.077 954.479 112.053 952.77 110.355Z" fill="white"/>
</g>
<g opacity="0.1" filter="url(#filter41_f_19_2)">
<path d="M952.77 110.355L597.449 -242.798L1032.21 99.8809C1039.93 105.967 1035.16 118.374 1025.35 117.712L959.146 113.24C956.743 113.077 954.479 112.053 952.77 110.355Z" fill="white"/>
</g>
<g opacity="0.1" filter="url(#filter42_f_19_2)">
<path d="M924.758 72.1492L647.84 -203.079L981.82 60.1631C989.542 66.2493 984.765 78.6567 974.956 77.994L931.133 75.0338C928.73 74.8714 926.466 73.8472 924.758 72.1492Z" fill="white"/>
</g>
<g opacity="0.1" filter="url(#filter43_f_19_2)">
<path d="M952.77 110.355L597.449 -242.798L1032.21 99.8809C1039.93 105.967 1035.16 118.374 1025.35 117.712L959.146 113.24C956.743 113.077 954.479 112.053 952.77 110.355Z" fill="white"/>
</g>
<g opacity="0.1" filter="url(#filter44_f_19_2)">
<path d="M952.77 110.355L597.449 -242.798L1032.21 99.8809C1039.93 105.967 1035.16 118.374 1025.35 117.712L959.146 113.24C956.743 113.077 954.479 112.053 952.77 110.355Z" fill="white"/>
</g>
</g>
<defs>
<filter id="filter0_f_19_2" x="215.661" y="-524.949" width="1204.31" height="935.987" filterUnits="userSpaceOnUse" color-interpolation-filters="sRGB">
<feFlood flood-opacity="0" result="BackgroundImageFix"/>
<feBlend mode="normal" in="SourceGraphic" in2="BackgroundImageFix" result="shape"/>
<feGaussianBlur stdDeviation="65.5" result="effect1_foregroundBlur_19_2"/>
</filter>
<filter id="filter1_f_19_2" x="296.661" y="-443.949" width="1042.31" height="773.987" filterUnits="userSpaceOnUse" color-interpolation-filters="sRGB">
<feFlood flood-opacity="0" result="BackgroundImageFix"/>
<feBlend mode="normal" in="SourceGraphic" in2="BackgroundImageFix" result="shape"/>
<feGaussianBlur stdDeviation="25" result="effect1_foregroundBlur_19_2"/>
</filter>
<filter id="filter2_f_19_2" x="326.661" y="-413.949" width="982.311" height="713.987" filterUnits="userSpaceOnUse" color-interpolation-filters="sRGB">
<feFlood flood-opacity="0" result="BackgroundImageFix"/>
<feBlend mode="normal" in="SourceGraphic" in2="BackgroundImageFix" result="shape"/>
<feGaussianBlur stdDeviation="10" result="effect1_foregroundBlur_19_2"/>
</filter>
<filter id="filter3_f_19_2" x="379.398" y="-427.644" width="993.077" height="820.307" filterUnits="userSpaceOnUse" color-interpolation-filters="sRGB">
<feFlood flood-opacity="0" result="BackgroundImageFix"/>
<feBlend mode="normal" in="SourceGraphic" in2="BackgroundImageFix" result="shape"/>
<feGaussianBlur stdDeviation="65.5" result="effect1_foregroundBlur_19_2"/>
</filter>
<filter id="filter4_f_19_2" x="379.398" y="-427.644" width="993.077" height="820.307" filterUnits="userSpaceOnUse" color-interpolation-filters="sRGB">
<feFlood flood-opacity="0" result="BackgroundImageFix"/>
<feBlend mode="normal" in="SourceGraphic" in2="BackgroundImageFix" result="shape"/>
<feGaussianBlur stdDeviation="65.5" result="effect1_foregroundBlur_19_2"/>
</filter>
<filter id="filter5_f_19_2" x="379.398" y="-427.644" width="993.077" height="820.307" filterUnits="userSpaceOnUse" color-interpolation-filters="sRGB">
<feFlood flood-opacity="0" result="BackgroundImageFix"/>
<feBlend mode="normal" in="SourceGraphic" in2="BackgroundImageFix" result="shape"/>
<feGaussianBlur stdDeviation="65.5" result="effect1_foregroundBlur_19_2"/>
</filter>
<filter id="filter6_f_19_2" x="379.398" y="-427.644" width="993.077" height="820.307" filterUnits="userSpaceOnUse" color-interpolation-filters="sRGB">
<feFlood flood-opacity="0" result="BackgroundImageFix"/>
<feBlend mode="normal" in="SourceGraphic" in2="BackgroundImageFix" result="shape"/>
<feGaussianBlur stdDeviation="65.5" result="effect1_foregroundBlur_19_2"/>
</filter>
<filter id="filter7_f_19_2" x="464.547" y="-344.316" width="761.674" height="635.375" filterUnits="userSpaceOnUse" color-interpolation-filters="sRGB">
<feFlood flood-opacity="0" result="BackgroundImageFix"/>
<feBlend mode="normal" in="SourceGraphic" in2="BackgroundImageFix" result="shape"/>
<feGaussianBlur stdDeviation="30" result="effect1_foregroundBlur_19_2"/>
</filter>
<filter id="filter8_f_19_2" x="464.547" y="-344.316" width="761.674" height="635.375" filterUnits="userSpaceOnUse" color-interpolation-filters="sRGB">
<feFlood flood-opacity="0" result="BackgroundImageFix"/>
<feBlend mode="normal" in="SourceGraphic" in2="BackgroundImageFix" result="shape"/>
<feGaussianBlur stdDeviation="30" result="effect1_foregroundBlur_19_2"/>
</filter>
<filter id="filter9_f_19_2" x="464.547" y="-344.316" width="761.674" height="635.375" filterUnits="userSpaceOnUse" color-interpolation-filters="sRGB">
<feFlood flood-opacity="0" result="BackgroundImageFix"/>
<feBlend mode="normal" in="SourceGraphic" in2="BackgroundImageFix" result="shape"/>
<feGaussianBlur stdDeviation="30" result="effect1_foregroundBlur_19_2"/>
</filter>
<filter id="filter10_f_19_2" x="337.129" y="-467.852" width="787.894" height="822.232" filterUnits="userSpaceOnUse" color-interpolation-filters="sRGB">
<feFlood flood-opacity="0" result="BackgroundImageFix"/>
<feBlend mode="normal" in="SourceGraphic" in2="BackgroundImageFix" result="shape"/>
<feGaussianBlur stdDeviation="65.5" result="effect1_foregroundBlur_19_2"/>
</filter>
<filter id="filter11_f_19_2" x="398.227" y="-399.07" width="664.356" height="690.303" filterUnits="userSpaceOnUse" color-interpolation-filters="sRGB">
<feFlood flood-opacity="0" result="BackgroundImageFix"/>
<feBlend mode="normal" in="SourceGraphic" in2="BackgroundImageFix" result="shape"/>
<feGaussianBlur stdDeviation="65.5" result="effect1_foregroundBlur_19_2"/>
</filter>
<filter id="filter12_f_19_2" x="429.094" y="-364.321" width="601.945" height="623.653" filterUnits="userSpaceOnUse" color-interpolation-filters="sRGB">
<feFlood flood-opacity="0" result="BackgroundImageFix"/>
<feBlend mode="normal" in="SourceGraphic" in2="BackgroundImageFix" result="shape"/>
<feGaussianBlur stdDeviation="65.5" result="effect1_foregroundBlur_19_2"/>
</filter>
<filter id="filter13_f_19_2" x="452.777" y="-337.658" width="554.056" height="572.511" filterUnits="userSpaceOnUse" color-interpolation-filters="sRGB">
<feFlood flood-opacity="0" result="BackgroundImageFix"/>
<feBlend mode="normal" in="SourceGraphic" in2="BackgroundImageFix" result="shape"/>
<feGaussianBlur stdDeviation="65.5" result="effect1_foregroundBlur_19_2"/>
</filter>
<filter id="filter14_f_19_2" x="471.359" y="-316.738" width="516.481" height="532.384" filterUnits="userSpaceOnUse" color-interpolation-filters="sRGB">
<feFlood flood-opacity="0" result="BackgroundImageFix"/>
<feBlend mode="normal" in="SourceGraphic" in2="BackgroundImageFix" result="shape"/>
<feGaussianBlur stdDeviation="65.5" result="effect1_foregroundBlur_19_2"/>
</filter>
<filter id="filter15_f_19_2" x="471.359" y="-316.738" width="516.481" height="532.384" filterUnits="userSpaceOnUse" color-interpolation-filters="sRGB">
<feFlood flood-opacity="0" result="BackgroundImageFix"/>
<feBlend mode="normal" in="SourceGraphic" in2="BackgroundImageFix" result="shape"/>
<feGaussianBlur stdDeviation="65.5" result="effect1_foregroundBlur_19_2"/>
</filter>
<filter id="filter16_f_19_2" x="449.234" y="-346" width="558.521" height="573.214" filterUnits="userSpaceOnUse" color-interpolation-filters="sRGB">
<feFlood flood-opacity="0" result="BackgroundImageFix"/>
<feBlend mode="normal" in="SourceGraphic" in2="BackgroundImageFix" result="shape"/>
<feGaussianBlur stdDeviation="20" result="effect1_foregroundBlur_19_2"/>
</filter>
<filter id="filter17_f_19_2" x="449.234" y="-346" width="558.521" height="573.214" filterUnits="userSpaceOnUse" color-interpolation-filters="sRGB">
<feFlood flood-opacity="0" result="BackgroundImageFix"/>
<feBlend mode="normal" in="SourceGraphic" in2="BackgroundImageFix" result="shape"/>
<feGaussianBlur stdDeviation="20" result="effect1_foregroundBlur_19_2"/>
</filter>
<filter id="filter18_f_19_2" x="493.617" y="-301.618" width="470.332" height="484.451" filterUnits="userSpaceOnUse" color-interpolation-filters="sRGB">
<feFlood flood-opacity="0" result="BackgroundImageFix"/>
<feBlend mode="normal" in="SourceGraphic" in2="BackgroundImageFix" result="shape"/>
<feGaussianBlur stdDeviation="20" result="effect1_foregroundBlur_19_2"/>
</filter>
<filter id="filter19_f_19_2" x="523.606" y="-271.63" width="410.355" height="424.475" filterUnits="userSpaceOnUse" color-interpolation-filters="sRGB">
<feFlood flood-opacity="0" result="BackgroundImageFix"/>
<feBlend mode="normal" in="SourceGraphic" in2="BackgroundImageFix" result="shape"/>
<feGaussianBlur stdDeviation="20" result="effect1_foregroundBlur_19_2"/>
</filter>
<filter id="filter20_f_19_2" x="542.797" y="-252.437" width="371.971" height="386.091" filterUnits="userSpaceOnUse" color-interpolation-filters="sRGB">
<feFlood flood-opacity="0" result="BackgroundImageFix"/>
<feBlend mode="normal" in="SourceGraphic" in2="BackgroundImageFix" result="shape"/>
<feGaussianBlur stdDeviation="20" result="effect1_foregroundBlur_19_2"/>
</filter>
<filter id="filter21_f_19_2" x="542.797" y="-252.437" width="371.971" height="386.091" filterUnits="userSpaceOnUse" color-interpolation-filters="sRGB">
<feFlood flood-opacity="0" result="BackgroundImageFix"/>
<feBlend mode="normal" in="SourceGraphic" in2="BackgroundImageFix" result="shape"/>
<feGaussianBlur stdDeviation="20" result="effect1_foregroundBlur_19_2"/>
</filter>
<filter id="filter22_f_19_2" x="542.797" y="-252.437" width="371.971" height="386.091" filterUnits="userSpaceOnUse" color-interpolation-filters="sRGB">
<feFlood flood-opacity="0" result="BackgroundImageFix"/>
<feBlend mode="normal" in="SourceGraphic" in2="BackgroundImageFix" result="shape"/>
<feGaussianBlur stdDeviation="20" result="effect1_foregroundBlur_19_2"/>
</filter>
<filter id="filter23_f_19_2" x="523.606" y="-271.63" width="410.355" height="424.475" filterUnits="userSpaceOnUse" color-interpolation-filters="sRGB">
<feFlood flood-opacity="0" result="BackgroundImageFix"/>
<feBlend mode="normal" in="SourceGraphic" in2="BackgroundImageFix" result="shape"/>
<feGaussianBlur stdDeviation="20" result="effect1_foregroundBlur_19_2"/>
</filter>
<filter id="filter24_f_19_2" x="493.617" y="-301.618" width="470.332" height="484.451" filterUnits="userSpaceOnUse" color-interpolation-filters="sRGB">
<feFlood flood-opacity="0" result="BackgroundImageFix"/>
<feBlend mode="normal" in="SourceGraphic" in2="BackgroundImageFix" result="shape"/>
<feGaussianBlur stdDeviation="20" result="effect1_foregroundBlur_19_2"/>
</filter>
<filter id="filter25_f_19_2" x="449.234" y="-346" width="558.521" height="573.214" filterUnits="userSpaceOnUse" color-interpolation-filters="sRGB">
<feFlood flood-opacity="0" result="BackgroundImageFix"/>
<feBlend mode="normal" in="SourceGraphic" in2="BackgroundImageFix" result="shape"/>
<feGaussianBlur stdDeviation="20" result="effect1_foregroundBlur_19_2"/>
</filter>
<filter id="filter26_f_19_2" x="449.234" y="-346" width="558.521" height="573.214" filterUnits="userSpaceOnUse" color-interpolation-filters="sRGB">
<feFlood flood-opacity="0" result="BackgroundImageFix"/>
<feBlend mode="normal" in="SourceGraphic" in2="BackgroundImageFix" result="shape"/>
<feGaussianBlur stdDeviation="20" result="effect1_foregroundBlur_19_2"/>
</filter>
<filter id="filter27_f_19_2" x="449.234" y="-346" width="558.521" height="573.214" filterUnits="userSpaceOnUse" color-interpolation-filters="sRGB">
<feFlood flood-opacity="0" result="BackgroundImageFix"/>
<feBlend mode="normal" in="SourceGraphic" in2="BackgroundImageFix" result="shape"/>
<feGaussianBlur stdDeviation="20" result="effect1_foregroundBlur_19_2"/>
</filter>
<filter id="filter28_f_19_2" x="625.141" y="-219.641" width="475.449" height="406.525" filterUnits="userSpaceOnUse" color-interpolation-filters="sRGB">
<feFlood flood-opacity="0" result="BackgroundImageFix"/>
<feBlend mode="normal" in="SourceGraphic" in2="BackgroundImageFix" result="shape"/>
<feGaussianBlur stdDeviation="20" result="effect1_foregroundBlur_19_2"/>
</filter>
<filter id="filter29_f_19_2" x="625.141" y="-219.641" width="475.449" height="406.525" filterUnits="userSpaceOnUse" color-interpolation-filters="sRGB">
<feFlood flood-opacity="0" result="BackgroundImageFix"/>
<feBlend mode="normal" in="SourceGraphic" in2="BackgroundImageFix" result="shape"/>
<feGaussianBlur stdDeviation="20" result="effect1_foregroundBlur_19_2"/>
</filter>
<filter id="filter30_f_19_2" x="625.141" y="-219.641" width="475.449" height="406.525" filterUnits="userSpaceOnUse" color-interpolation-filters="sRGB">
<feFlood flood-opacity="0" result="BackgroundImageFix"/>
<feBlend mode="normal" in="SourceGraphic" in2="BackgroundImageFix" result="shape"/>
<feGaussianBlur stdDeviation="20" result="effect1_foregroundBlur_19_2"/>
</filter>
<filter id="filter31_f_19_2" x="625.141" y="-219.641" width="475.449" height="406.525" filterUnits="userSpaceOnUse" color-interpolation-filters="sRGB">
<feFlood flood-opacity="0" result="BackgroundImageFix"/>
<feBlend mode="normal" in="SourceGraphic" in2="BackgroundImageFix" result="shape"/>
<feGaussianBlur stdDeviation="20" result="effect1_foregroundBlur_19_2"/>
</filter>
<filter id="filter32_f_19_2" x="625.141" y="-219.641" width="475.449" height="406.525" filterUnits="userSpaceOnUse" color-interpolation-filters="sRGB">
<feFlood flood-opacity="0" result="BackgroundImageFix"/>
<feBlend mode="normal" in="SourceGraphic" in2="BackgroundImageFix" result="shape"/>
<feGaussianBlur stdDeviation="20" result="effect1_foregroundBlur_19_2"/>
</filter>
<filter id="filter33_f_19_2" x="625.141" y="-219.641" width="475.449" height="406.525" filterUnits="userSpaceOnUse" color-interpolation-filters="sRGB">
<feFlood flood-opacity="0" result="BackgroundImageFix"/>
<feBlend mode="normal" in="SourceGraphic" in2="BackgroundImageFix" result="shape"/>
<feGaussianBlur stdDeviation="20" result="effect1_foregroundBlur_19_2"/>
</filter>
<filter id="filter34_f_19_2" x="625.141" y="-219.641" width="475.449" height="406.525" filterUnits="userSpaceOnUse" color-interpolation-filters="sRGB">
<feFlood flood-opacity="0" result="BackgroundImageFix"/>
<feBlend mode="normal" in="SourceGraphic" in2="BackgroundImageFix" result="shape"/>
<feGaussianBlur stdDeviation="20" result="effect1_foregroundBlur_19_2"/>
</filter>
<filter id="filter35_f_19_2" x="625.141" y="-219.641" width="475.449" height="406.525" filterUnits="userSpaceOnUse" color-interpolation-filters="sRGB">
<feFlood flood-opacity="0" result="BackgroundImageFix"/>
<feBlend mode="normal" in="SourceGraphic" in2="BackgroundImageFix" result="shape"/>
<feGaussianBlur stdDeviation="20" result="effect1_foregroundBlur_19_2"/>
</filter>
<filter id="filter36_f_19_2" x="498.141" y="-329.545" width="637.215" height="534.028" filterUnits="userSpaceOnUse" color-interpolation-filters="sRGB">
<feFlood flood-opacity="0" result="BackgroundImageFix"/>
<feBlend mode="normal" in="SourceGraphic" in2="BackgroundImageFix" result="shape"/>
<feGaussianBlur stdDeviation="20" result="effect1_foregroundBlur_19_2"/>
</filter>
<filter id="filter37_f_19_2" x="498.141" y="-329.545" width="637.215" height="534.028" filterUnits="userSpaceOnUse" color-interpolation-filters="sRGB">
<feFlood flood-opacity="0" result="BackgroundImageFix"/>
<feBlend mode="normal" in="SourceGraphic" in2="BackgroundImageFix" result="shape"/>
<feGaussianBlur stdDeviation="20" result="effect1_foregroundBlur_19_2"/>
</filter>
<filter id="filter38_f_19_2" x="498.141" y="-329.545" width="637.215" height="534.028" filterUnits="userSpaceOnUse" color-interpolation-filters="sRGB">
<feFlood flood-opacity="0" result="BackgroundImageFix"/>
<feBlend mode="normal" in="SourceGraphic" in2="BackgroundImageFix" result="shape"/>
<feGaussianBlur stdDeviation="20" result="effect1_foregroundBlur_19_2"/>
</filter>
<filter id="filter39_f_19_2" x="557.449" y="-282.798" width="518.598" height="440.535" filterUnits="userSpaceOnUse" color-interpolation-filters="sRGB">
<feFlood flood-opacity="0" result="BackgroundImageFix"/>
<feBlend mode="normal" in="SourceGraphic" in2="BackgroundImageFix" result="shape"/>
<feGaussianBlur stdDeviation="20" result="effect1_foregroundBlur_19_2"/>
</filter>
<filter id="filter40_f_19_2" x="557.449" y="-282.798" width="518.598" height="440.535" filterUnits="userSpaceOnUse" color-interpolation-filters="sRGB">
<feFlood flood-opacity="0" result="BackgroundImageFix"/>
<feBlend mode="normal" in="SourceGraphic" in2="BackgroundImageFix" result="shape"/>
<feGaussianBlur stdDeviation="20" result="effect1_foregroundBlur_19_2"/>
</filter>
<filter id="filter41_f_19_2" x="557.449" y="-282.798" width="518.598" height="440.535" filterUnits="userSpaceOnUse" color-interpolation-filters="sRGB">
<feFlood flood-opacity="0" result="BackgroundImageFix"/>
<feBlend mode="normal" in="SourceGraphic" in2="BackgroundImageFix" result="shape"/>
<feGaussianBlur stdDeviation="20" result="effect1_foregroundBlur_19_2"/>
</filter>
<filter id="filter42_f_19_2" x="607.84" y="-243.079" width="417.816" height="361.099" filterUnits="userSpaceOnUse" color-interpolation-filters="sRGB">
<feFlood flood-opacity="0" result="BackgroundImageFix"/>
<feBlend mode="normal" in="SourceGraphic" in2="BackgroundImageFix" result="shape"/>
<feGaussianBlur stdDeviation="20" result="effect1_foregroundBlur_19_2"/>
</filter>
<filter id="filter43_f_19_2" x="557.449" y="-282.798" width="518.598" height="440.535" filterUnits="userSpaceOnUse" color-interpolation-filters="sRGB">
<feFlood flood-opacity="0" result="BackgroundImageFix"/>
<feBlend mode="normal" in="SourceGraphic" in2="BackgroundImageFix" result="shape"/>
<feGaussianBlur stdDeviation="20" result="effect1_foregroundBlur_19_2"/>
</filter>
<filter id="filter44_f_19_2" x="557.449" y="-282.798" width="518.598" height="440.535" filterUnits="userSpaceOnUse" color-interpolation-filters="sRGB">
<feFlood flood-opacity="0" result="BackgroundImageFix"/>
<feBlend mode="normal" in="SourceGraphic" in2="BackgroundImageFix" result="shape"/>
<feGaussianBlur stdDeviation="20" result="effect1_foregroundBlur_19_2"/>
</filter>
<linearGradient id="paint0_linear_19_2" x1="903.502" y1="73.3697" x2="903.502" y2="309.25" gradientUnits="userSpaceOnUse">
<stop stop-color="white" stop-opacity="0"/>
<stop offset="1" stop-color="white"/>
</linearGradient>
<linearGradient id="paint1_linear_19_2" x1="903.502" y1="73.3697" x2="903.502" y2="309.25" gradientUnits="userSpaceOnUse">
<stop stop-color="white" stop-opacity="0"/>
<stop offset="1" stop-color="white"/>
</linearGradient>
<linearGradient id="paint2_linear_19_2" x1="903.502" y1="73.3697" x2="903.502" y2="309.25" gradientUnits="userSpaceOnUse">
<stop stop-color="white" stop-opacity="0"/>
<stop offset="1" stop-color="white"/>
</linearGradient>
<linearGradient id="paint3_linear_19_2" x1="903.502" y1="73.3697" x2="903.502" y2="309.25" gradientUnits="userSpaceOnUse">
<stop stop-color="white" stop-opacity="0"/>
<stop offset="1" stop-color="white"/>
</linearGradient>
<linearGradient id="paint4_linear_19_2" x1="903.502" y1="73.3697" x2="903.502" y2="309.25" gradientUnits="userSpaceOnUse">
<stop stop-color="white" stop-opacity="0"/>
<stop offset="1" stop-color="white"/>
</linearGradient>
<linearGradient id="paint5_linear_19_2" x1="903.502" y1="73.3697" x2="903.502" y2="309.25" gradientUnits="userSpaceOnUse">
<stop stop-color="white" stop-opacity="0"/>
<stop offset="1" stop-color="white"/>
</linearGradient>
<linearGradient id="paint6_linear_19_2" x1="903.502" y1="73.3697" x2="903.502" y2="309.25" gradientUnits="userSpaceOnUse">
<stop stop-color="white" stop-opacity="0"/>
<stop offset="1" stop-color="white"/>
</linearGradient>
<linearGradient id="paint7_linear_19_2" x1="903.502" y1="73.3697" x2="903.502" y2="309.25" gradientUnits="userSpaceOnUse">
<stop stop-color="white" stop-opacity="0"/>
<stop offset="1" stop-color="white"/>
</linearGradient>
<linearGradient id="paint8_linear_19_2" x1="903.502" y1="73.3697" x2="903.502" y2="309.25" gradientUnits="userSpaceOnUse">
<stop stop-color="white" stop-opacity="0"/>
<stop offset="1" stop-color="white"/>
</linearGradient>
<linearGradient id="paint9_linear_19_2" x1="903.502" y1="73.3697" x2="903.502" y2="309.25" gradientUnits="userSpaceOnUse">
<stop stop-color="white" stop-opacity="0"/>
<stop offset="1" stop-color="white"/>
</linearGradient>
<linearGradient id="paint10_linear_19_2" x1="903.502" y1="73.3697" x2="903.502" y2="309.25" gradientUnits="userSpaceOnUse">
<stop stop-color="white" stop-opacity="0"/>
<stop offset="1" stop-color="white"/>
</linearGradient>
<linearGradient id="paint11_linear_19_2" x1="903.502" y1="73.3697" x2="903.502" y2="309.25" gradientUnits="userSpaceOnUse">
<stop stop-color="white" stop-opacity="0"/>
<stop offset="1" stop-color="white"/>
</linearGradient>
<linearGradient id="paint12_linear_19_2" x1="903.502" y1="73.3697" x2="903.502" y2="309.25" gradientUnits="userSpaceOnUse">
<stop stop-color="white" stop-opacity="0"/>
<stop offset="1" stop-color="white"/>
</linearGradient>
<linearGradient id="paint13_linear_19_2" x1="903.502" y1="73.3697" x2="903.502" y2="309.25" gradientUnits="userSpaceOnUse">
<stop stop-color="white" stop-opacity="0"/>
<stop offset="1" stop-color="white"/>
</linearGradient>
<linearGradient id="paint14_linear_19_2" x1="903.502" y1="73.3697" x2="903.502" y2="309.25" gradientUnits="userSpaceOnUse">
<stop stop-color="white" stop-opacity="0"/>
<stop offset="1" stop-color="white"/>
</linearGradient>
<linearGradient id="paint15_linear_19_2" x1="903.502" y1="73.3697" x2="903.502" y2="309.25" gradientUnits="userSpaceOnUse">
<stop stop-color="white" stop-opacity="0"/>
<stop offset="1" stop-color="white"/>
</linearGradient>
<linearGradient id="paint16_linear_19_2" x1="903.502" y1="73.3697" x2="903.502" y2="309.25" gradientUnits="userSpaceOnUse">
<stop stop-color="white" stop-opacity="0"/>
<stop offset="1" stop-color="white"/>
</linearGradient>
<linearGradient id="paint17_linear_19_2" x1="903.502" y1="73.3697" x2="903.502" y2="309.25" gradientUnits="userSpaceOnUse">
<stop stop-color="white" stop-opacity="0"/>
<stop offset="1" stop-color="white"/>
</linearGradient>
<linearGradient id="paint18_linear_19_2" x1="903.502" y1="73.3697" x2="903.502" y2="309.25" gradientUnits="userSpaceOnUse">
<stop stop-color="white" stop-opacity="0"/>
<stop offset="1" stop-color="white"/>
</linearGradient>
<linearGradient id="paint19_linear_19_2" x1="903.502" y1="73.3697" x2="903.502" y2="309.25" gradientUnits="userSpaceOnUse">
<stop stop-color="white" stop-opacity="0"/>
<stop offset="1" stop-color="white"/>
</linearGradient>
<linearGradient id="paint20_linear_19_2" x1="903.502" y1="73.3697" x2="903.502" y2="309.25" gradientUnits="userSpaceOnUse">
<stop stop-color="white" stop-opacity="0"/>
<stop offset="1" stop-color="white"/>
</linearGradient>
<linearGradient id="paint21_linear_19_2" x1="903.502" y1="73.3697" x2="903.502" y2="309.25" gradientUnits="userSpaceOnUse">
<stop stop-color="white" stop-opacity="0"/>
<stop offset="1" stop-color="white"/>
</linearGradient>
<linearGradient id="paint22_linear_19_2" x1="903.502" y1="73.3697" x2="903.502" y2="309.25" gradientUnits="userSpaceOnUse">
<stop stop-color="white" stop-opacity="0"/>
<stop offset="1" stop-color="white"/>
</linearGradient>
<linearGradient id="paint23_linear_19_2" x1="903.502" y1="73.3697" x2="903.502" y2="309.25" gradientUnits="userSpaceOnUse">
<stop stop-color="white" stop-opacity="0"/>
<stop offset="1" stop-color="white"/>
</linearGradient>
<linearGradient id="paint24_linear_19_2" x1="903.502" y1="73.3697" x2="903.502" y2="309.25" gradientUnits="userSpaceOnUse">
<stop stop-color="white" stop-opacity="0"/>
<stop offset="1" stop-color="white"/>
</linearGradient>
<linearGradient id="paint25_linear_19_2" x1="903.502" y1="73.3697" x2="903.502" y2="309.25" gradientUnits="userSpaceOnUse">
<stop stop-color="white" stop-opacity="0"/>
<stop offset="1" stop-color="white"/>
</linearGradient>
<linearGradient id="paint26_linear_19_2" x1="903.502" y1="73.3697" x2="903.502" y2="309.25" gradientUnits="userSpaceOnUse">
<stop stop-color="white" stop-opacity="0"/>
<stop offset="1" stop-color="white"/>
</linearGradient>
<linearGradient id="paint27_linear_19_2" x1="903.502" y1="73.3697" x2="903.502" y2="309.25" gradientUnits="userSpaceOnUse">
<stop stop-color="white" stop-opacity="0"/>
<stop offset="1" stop-color="white"/>
</linearGradient>
<linearGradient id="paint28_linear_19_2" x1="903.502" y1="73.3697" x2="903.502" y2="309.25" gradientUnits="userSpaceOnUse">
<stop stop-color="white" stop-opacity="0"/>
<stop offset="1" stop-color="white"/>
</linearGradient>
<linearGradient id="paint29_linear_19_2" x1="903.502" y1="73.3697" x2="903.502" y2="309.25" gradientUnits="userSpaceOnUse">
<stop stop-color="white" stop-opacity="0"/>
<stop offset="1" stop-color="white"/>
</linearGradient>
<linearGradient id="paint30_linear_19_2" x1="903.502" y1="73.3697" x2="903.502" y2="309.25" gradientUnits="userSpaceOnUse">
<stop stop-color="white" stop-opacity="0"/>
<stop offset="1" stop-color="white"/>
</linearGradient>
<linearGradient id="paint31_linear_19_2" x1="903.502" y1="73.3697" x2="903.502" y2="309.25" gradientUnits="userSpaceOnUse">
<stop stop-color="white" stop-opacity="0"/>
<stop offset="1" stop-color="white"/>
</linearGradient>
<linearGradient id="paint32_linear_19_2" x1="903.502" y1="73.3697" x2="903.502" y2="309.25" gradientUnits="userSpaceOnUse">
<stop stop-color="white" stop-opacity="0"/>
<stop offset="1" stop-color="white"/>
</linearGradient>
<linearGradient id="paint33_linear_19_2" x1="903.502" y1="73.3697" x2="903.502" y2="309.25" gradientUnits="userSpaceOnUse">
<stop stop-color="white" stop-opacity="0"/>
<stop offset="1" stop-color="white"/>
</linearGradient>
<linearGradient id="paint34_linear_19_2" x1="903.502" y1="73.3697" x2="903.502" y2="309.25" gradientUnits="userSpaceOnUse">
<stop stop-color="white" stop-opacity="0"/>
<stop offset="1" stop-color="white"/>
</linearGradient>
<linearGradient id="paint35_linear_19_2" x1="903.502" y1="73.3697" x2="903.502" y2="309.25" gradientUnits="userSpaceOnUse">
<stop stop-color="white" stop-opacity="0"/>
<stop offset="1" stop-color="white"/>
</linearGradient>
<linearGradient id="paint36_linear_19_2" x1="903.502" y1="73.3697" x2="903.502" y2="309.25" gradientUnits="userSpaceOnUse">
<stop stop-color="white" stop-opacity="0"/>
<stop offset="1" stop-color="white"/>
</linearGradient>
<linearGradient id="paint37_linear_19_2" x1="903.502" y1="73.3697" x2="903.502" y2="309.25" gradientUnits="userSpaceOnUse">
<stop stop-color="white" stop-opacity="0"/>
<stop offset="1" stop-color="white"/>
</linearGradient>
<linearGradient id="paint38_linear_19_2" x1="903.502" y1="73.3697" x2="903.502" y2="309.25" gradientUnits="userSpaceOnUse">
<stop stop-color="white" stop-opacity="0"/>
<stop offset="1" stop-color="white"/>
</linearGradient>
<linearGradient id="paint39_linear_19_2" x1="903.502" y1="73.3697" x2="903.502" y2="309.25" gradientUnits="userSpaceOnUse">
<stop stop-color="white" stop-opacity="0"/>
<stop offset="1" stop-color="white"/>
</linearGradient>
<linearGradient id="paint40_linear_19_2" x1="903.502" y1="73.3697" x2="903.502" y2="309.25" gradientUnits="userSpaceOnUse">
<stop stop-color="white" stop-opacity="0"/>
<stop offset="1" stop-color="white"/>
</linearGradient>
<linearGradient id="paint41_linear_19_2" x1="903.502" y1="73.3697" x2="903.502" y2="309.25" gradientUnits="userSpaceOnUse">
<stop stop-color="white" stop-opacity="0"/>
<stop offset="1" stop-color="white"/>
</linearGradient>
<linearGradient id="paint42_linear_19_2" x1="903.502" y1="73.3697" x2="903.502" y2="309.25" gradientUnits="userSpaceOnUse">
<stop stop-color="white" stop-opacity="0"/>
<stop offset="1" stop-color="white"/>
</linearGradient>
<linearGradient id="paint43_linear_19_2" x1="903.502" y1="73.3697" x2="903.502" y2="309.25" gradientUnits="userSpaceOnUse">
<stop stop-color="white" stop-opacity="0"/>
<stop offset="1" stop-color="white"/>
</linearGradient>
<linearGradient id="paint44_linear_19_2" x1="903.502" y1="73.3697" x2="903.502" y2="309.25" gradientUnits="userSpaceOnUse">
<stop stop-color="white" stop-opacity="0"/>
<stop offset="1" stop-color="white"/>
</linearGradient>
<linearGradient id="paint45_linear_19_2" x1="903.502" y1="73.3697" x2="903.502" y2="309.25" gradientUnits="userSpaceOnUse">
<stop stop-color="white" stop-opacity="0"/>
<stop offset="1" stop-color="white"/>
</linearGradient>
<linearGradient id="paint46_linear_19_2" x1="903.502" y1="73.3697" x2="903.502" y2="309.25" gradientUnits="userSpaceOnUse">
<stop stop-color="white" stop-opacity="0"/>
<stop offset="1" stop-color="white"/>
</linearGradient>
<linearGradient id="paint47_linear_19_2" x1="340.966" y1="357.238" x2="526.329" y2="253.388" gradientUnits="userSpaceOnUse">
<stop stop-color="white" stop-opacity="0"/>
<stop offset="0.104167" stop-color="white"/>
<stop offset="0.336041" stop-color="#84B3D3"/>
<stop offset="1" stop-color="white" stop-opacity="0"/>
</linearGradient>
<linearGradient id="paint48_linear_19_2" x1="1259" y1="158" x2="1187.5" y2="158" gradientUnits="userSpaceOnUse">
<stop stop-color="white"/>
<stop offset="1" stop-color="white" stop-opacity="0"/>
</linearGradient>
<linearGradient id="paint49_linear_19_2" x1="1296" y1="186.5" x2="1351.26" y2="245.976" gradientUnits="userSpaceOnUse">
<stop stop-color="white"/>
<stop offset="0.927083" stop-color="#8CE1FC"/>
<stop offset="1" stop-color="#8CE1FC" stop-opacity="0"/>
</linearGradient>
<clipPath id="clip0_19_2">
<rect width="1920" height="586" fill="white"/>
</clipPath>
<clipPath id="clip1_19_2">
<rect width="1920" height="586" fill="white"/>
</clipPath>
</defs>
</svg>
