<svg width="48" height="48" viewBox="0 0 48 48" fill="none" xmlns="http://www.w3.org/2000/svg">
<rect width="48" height="48" rx="4" fill="url(#paint0_linear_601_2442)" fill-opacity="0.2"/>
<g clip-path="url(#clip0_601_2442)">
<path d="M24 26.6735C25.4768 26.6735 26.6739 25.4764 26.6739 23.9996C26.6739 22.5228 25.4768 21.3257 24 21.3257C22.5233 21.3257 21.3261 22.5228 21.3261 23.9996C21.3261 25.4764 22.5233 26.6735 24 26.6735Z" fill="white"/>
<g opacity="0.5">
<path fill-rule="evenodd" clip-rule="evenodd" d="M11.0756 22.1951C10.4041 22.8013 10.0936 23.4119 10.0936 24C10.0936 24.5881 10.4041 25.1987 11.0756 25.8049C11.747 26.411 12.7434 26.9771 14.0122 27.4616C16.5467 28.4293 20.0779 29.0371 24.0002 29.0371C27.9226 29.0371 31.4538 28.4293 33.9883 27.4616C35.2571 26.9771 36.2535 26.411 36.9249 25.8049C37.5964 25.1987 37.9069 24.5881 37.9069 24C37.9069 23.4119 37.5964 22.8013 36.9249 22.1951C36.2535 21.589 35.2571 21.0229 33.9883 20.5384C31.4538 19.5707 27.9226 18.9629 24.0002 18.9629C20.0779 18.9629 16.5467 19.5707 14.0122 20.5384C12.7434 21.0229 11.747 21.589 11.0756 22.1951ZM13.6974 19.7141C16.3558 18.6991 19.9985 18.0806 24.0002 18.0806C28.002 18.0806 31.6447 18.6991 34.3031 19.7141C35.6307 20.2211 36.7355 20.8354 37.5162 21.5401C38.2968 22.2448 38.7892 23.0753 38.7892 24C38.7892 24.9247 38.2968 25.7552 37.5162 26.4599C36.7355 27.1646 35.6307 27.7789 34.3031 28.2859C31.6447 29.3009 28.002 29.9194 24.0002 29.9194C19.9985 29.9194 16.3558 29.3009 13.6974 28.2859C12.3698 27.7789 11.2649 27.1646 10.4843 26.4599C9.70374 25.7552 9.21124 24.9247 9.21124 24C9.21124 23.0753 9.70374 22.2448 10.4843 21.5401C11.2649 20.8354 12.3698 20.2211 13.6974 19.7141Z" fill="white"/>
<path fill-rule="evenodd" clip-rule="evenodd" d="M19.101 11.9045C18.2403 11.626 17.5562 11.6625 17.0469 11.9565C16.5376 12.2506 16.164 12.8248 15.9748 13.7094C15.7856 14.5939 15.7935 15.7399 16.0084 17.0809C16.4376 19.7597 17.6768 23.1217 19.638 26.5186C21.5992 29.9155 23.8911 32.6697 25.9965 34.3807C27.0504 35.2373 28.0388 35.8172 28.8995 36.0956C29.7602 36.374 30.4443 36.3376 30.9536 36.0435C31.4628 35.7495 31.8365 35.1753 32.0257 34.2907C32.2149 33.4061 32.2069 32.2602 31.9921 30.9192C31.5629 28.2404 30.3237 24.8784 28.3625 21.4815C26.4013 18.0846 24.1093 15.3304 22.004 13.6193C20.9501 12.7628 19.9616 12.1829 19.101 11.9045ZM22.5605 12.9346C24.7687 14.7293 27.1258 17.5747 29.1266 21.0403C31.1275 24.5059 32.4132 27.9699 32.8633 30.7796C33.0881 32.1829 33.1085 33.4469 32.8885 34.4752C32.6686 35.5036 32.1956 36.3453 31.3947 36.8077C30.5939 37.27 29.6284 37.2588 28.6279 36.9351C27.6273 36.6114 26.5428 35.9618 25.44 35.0655C23.2317 33.2708 20.8747 30.4253 18.8739 26.9598C16.873 23.4942 15.5873 20.0302 15.1372 17.2205C14.9123 15.8172 14.892 14.5532 15.112 13.5248C15.3319 12.4965 15.8049 11.6547 16.6057 11.1924C17.4066 10.73 18.372 10.7413 19.3726 11.065C20.3732 11.3887 21.4577 12.0383 22.5605 12.9346Z" fill="white"/>
<path fill-rule="evenodd" clip-rule="evenodd" d="M32.0257 13.7094C31.8365 12.8248 31.4628 12.2506 30.9536 11.9565C30.4443 11.6625 29.7602 11.626 28.8995 11.9045C28.0388 12.1829 27.0504 12.7628 25.9965 13.6193C23.8911 15.3304 21.5992 18.0846 19.638 21.4815C17.6768 24.8784 16.4376 28.2404 16.0084 30.9192C15.7935 32.2602 15.7856 33.4061 15.9748 34.2907C16.164 35.1753 16.5376 35.7495 17.0469 36.0435C17.5562 36.3376 18.2403 36.374 19.101 36.0956C19.9616 35.8172 20.9501 35.2373 22.004 34.3807C24.1093 32.6696 26.4013 29.9154 28.3625 26.5186C30.3237 23.1217 31.5629 19.7597 31.9921 17.0809C32.2069 15.7399 32.2149 14.5939 32.0257 13.7094ZM32.8633 17.2205C32.4132 20.0302 31.1275 23.4942 29.1266 26.9598C27.1258 30.4253 24.7687 33.2707 22.5605 35.0655C21.4577 35.9618 20.3732 36.6114 19.3726 36.9351C18.372 37.2588 17.4066 37.27 16.6057 36.8077C15.8049 36.3453 15.3319 35.5036 15.112 34.4752C14.892 33.4468 14.9123 32.1829 15.1372 30.7796C15.5873 27.9699 16.873 24.5059 18.8739 21.0403C20.8747 17.5747 23.2317 14.7293 25.44 12.9346C26.5428 12.0383 27.6273 11.3887 28.6279 11.065C29.6284 10.7413 30.5939 10.73 31.3947 11.1924C32.1956 11.6547 32.6686 12.4965 32.8885 13.5248C33.1085 14.5532 33.0881 15.8172 32.8633 17.2205Z" fill="white"/>
</g>
</g>
<defs>
<linearGradient id="paint0_linear_601_2442" x1="48" y1="-1.43051e-06" x2="-4.29153e-06" y2="48" gradientUnits="userSpaceOnUse">
<stop stop-color="white"/>
<stop offset="1" stop-color="white" stop-opacity="0"/>
</linearGradient>
<clipPath id="clip0_601_2442">
<rect width="30" height="30" fill="white" transform="translate(9 9)"/>
</clipPath>
</defs>
</svg>
