<svg width="48" height="48" viewBox="0 0 48 48" fill="none" xmlns="http://www.w3.org/2000/svg">
<rect width="48" height="48" rx="4" fill="url(#paint0_linear_601_2434)" fill-opacity="0.2"/>
<path opacity="0.5" d="M17.5262 22.5029C17.5262 22.868 17.5657 23.1641 17.6348 23.3812C17.7137 23.5983 17.8124 23.8352 17.9506 24.0917C17.9999 24.1707 18.0196 24.2496 18.0196 24.3187C18.0196 24.4174 17.9604 24.5161 17.8321 24.6148L17.2104 25.0292C17.1216 25.0884 17.0328 25.118 16.9539 25.118C16.8552 25.118 16.7565 25.0687 16.6578 24.9799C16.5196 24.8319 16.4012 24.674 16.3025 24.5161C16.2039 24.3483 16.1052 24.1608 15.9966 23.9338C15.2269 24.8417 14.2598 25.2957 13.0953 25.2957C12.2664 25.2957 11.6052 25.0588 11.1216 24.5852C10.6381 24.1115 10.3914 23.4799 10.3914 22.6904C10.3914 21.8516 10.6874 21.1707 11.2894 20.6575C11.8914 20.1444 12.6907 19.8878 13.7071 19.8878C14.0427 19.8878 14.3881 19.9174 14.7532 19.9667C15.1183 20.0161 15.4933 20.095 15.8881 20.1838V19.4634C15.8881 18.7134 15.7302 18.1904 15.4243 17.8845C15.1085 17.5786 14.5756 17.4305 13.8157 17.4305C13.4703 17.4305 13.115 17.47 12.7499 17.5588C12.3848 17.6477 12.0295 17.7562 11.6841 17.8944C11.5262 17.9634 11.4078 18.0029 11.3387 18.0227C11.2696 18.0424 11.2203 18.0523 11.1808 18.0523C11.0427 18.0523 10.9736 17.9536 10.9736 17.7463V17.2628C10.9736 17.1049 10.9933 16.9865 11.0427 16.9174C11.092 16.8483 11.1808 16.7792 11.319 16.7102C11.6644 16.5325 12.0789 16.3845 12.5624 16.2661C13.046 16.1378 13.5591 16.0786 14.1019 16.0786C15.2762 16.0786 16.1348 16.345 16.6874 16.8779C17.2302 17.4108 17.5065 18.22 17.5065 19.3055V22.5029H17.5262ZM13.5196 24.0029C13.8453 24.0029 14.1808 23.9437 14.5361 23.8253C14.8914 23.7069 15.2071 23.4898 15.4736 23.1937C15.6315 23.0062 15.7499 22.799 15.8091 22.5621C15.8683 22.3253 15.9078 22.0391 15.9078 21.7036V21.2891C15.6216 21.22 15.3157 21.1608 14.9999 21.1213C14.6841 21.0819 14.3782 21.0621 14.0723 21.0621C13.4111 21.0621 12.9275 21.1904 12.6019 21.4569C12.2762 21.7233 12.1183 22.0983 12.1183 22.5917C12.1183 23.0555 12.2368 23.4009 12.4835 23.6378C12.7203 23.8845 13.0657 24.0029 13.5196 24.0029ZM21.444 25.0687C21.2664 25.0687 21.1479 25.0391 21.069 24.97C20.99 24.9108 20.921 24.7727 20.8618 24.5852L18.5427 16.9569C18.4835 16.7595 18.4539 16.6312 18.4539 16.5621C18.4539 16.4042 18.5328 16.3154 18.6907 16.3154H19.6578C19.8453 16.3154 19.9736 16.345 20.0427 16.4141C20.1216 16.4733 20.1808 16.6115 20.24 16.799L21.8979 23.3319L23.4374 16.799C23.4868 16.6016 23.546 16.4733 23.6249 16.4141C23.7039 16.3549 23.842 16.3154 24.0196 16.3154H24.8091C24.9966 16.3154 25.1249 16.345 25.2039 16.4141C25.2828 16.4733 25.3519 16.6115 25.3914 16.799L26.9506 23.4108L28.6578 16.799C28.717 16.6016 28.7861 16.4733 28.8552 16.4141C28.9341 16.3549 29.0624 16.3154 29.24 16.3154H30.1578C30.3157 16.3154 30.4045 16.3944 30.4045 16.5621C30.4045 16.6115 30.3946 16.6608 30.3848 16.72C30.3749 16.7792 30.3552 16.8582 30.3157 16.9667L27.9374 24.595C27.8782 24.7924 27.8091 24.9207 27.7302 24.9799C27.6512 25.0391 27.5229 25.0786 27.3552 25.0786H26.5065C26.319 25.0786 26.1907 25.049 26.1118 24.9799C26.0328 24.9108 25.9637 24.7825 25.9243 24.5852L24.3946 18.22L22.8749 24.5753C22.8256 24.7727 22.7664 24.9009 22.6874 24.97C22.6085 25.0391 22.4703 25.0687 22.2927 25.0687H21.444ZM34.1249 25.3352C33.6118 25.3352 33.0986 25.2759 32.6052 25.1575C32.1118 25.0391 31.7269 24.9108 31.4703 24.7628C31.3124 24.674 31.2039 24.5753 31.1644 24.4865C31.1249 24.3977 31.1052 24.299 31.1052 24.2102V23.7069C31.1052 23.4996 31.1841 23.4009 31.3321 23.4009C31.3914 23.4009 31.4506 23.4108 31.5098 23.4305C31.569 23.4503 31.6578 23.4898 31.7565 23.5292C32.092 23.6773 32.4571 23.7957 32.842 23.8746C33.2368 23.9536 33.6216 23.993 34.0164 23.993C34.6381 23.993 35.1216 23.8845 35.4571 23.6674C35.7927 23.4503 35.9703 23.1345 35.9703 22.7299C35.9703 22.4536 35.8815 22.2266 35.7039 22.0391C35.5262 21.8516 35.1907 21.6838 34.7071 21.5259L33.2762 21.0819C32.5558 20.8549 32.0229 20.5194 31.6973 20.0753C31.3716 19.6411 31.2039 19.1575 31.2039 18.6444C31.2039 18.2299 31.2927 17.8648 31.4703 17.549C31.6479 17.2332 31.8848 16.9569 32.1808 16.7398C32.4769 16.5128 32.8124 16.345 33.2071 16.2266C33.6019 16.1082 34.0164 16.0588 34.4506 16.0588C34.6677 16.0588 34.8946 16.0687 35.1118 16.0983C35.3387 16.1279 35.546 16.1674 35.7532 16.2069C35.9506 16.2562 36.1381 16.3055 36.3157 16.3648C36.4933 16.424 36.6315 16.4832 36.7302 16.5424C36.8683 16.6213 36.967 16.7003 37.0262 16.7891C37.0854 16.868 37.115 16.9766 37.115 17.1148V17.5786C37.115 17.7858 37.0361 17.8944 36.8881 17.8944C36.8091 17.8944 36.6808 17.8549 36.5131 17.7759C35.9506 17.5194 35.319 17.3911 34.6183 17.3911C34.0558 17.3911 33.6118 17.4799 33.3058 17.6674C32.9999 17.8549 32.842 18.1411 32.842 18.5457C32.842 18.822 32.9407 19.0588 33.1381 19.2463C33.3354 19.4338 33.7006 19.6213 34.2236 19.7891L35.6249 20.2332C36.3354 20.4602 36.8486 20.7759 37.1545 21.1805C37.4604 21.5852 37.6085 22.049 37.6085 22.5621C37.6085 22.9865 37.5196 23.3713 37.3519 23.7069C37.1743 24.0424 36.9374 24.3384 36.6315 24.5753C36.3256 24.822 35.9604 24.9996 35.5361 25.1279C35.092 25.2661 34.6282 25.3352 34.1249 25.3352Z" fill="white"/>
<path fill-rule="evenodd" clip-rule="evenodd" d="M35.9901 30.1312C32.7434 32.5292 28.0263 33.8022 23.9703 33.8022C18.2861 33.8022 13.1644 31.7002 9.296 28.2068C8.99008 27.9305 9.26639 27.5555 9.63153 27.7726C13.8157 30.2002 18.9769 31.6706 24.3157 31.6706C27.9177 31.6706 31.875 30.9206 35.5164 29.3812C36.0592 29.1344 36.523 29.7364 35.9901 30.1312Z" fill="white"/>
<path fill-rule="evenodd" clip-rule="evenodd" d="M37.3421 28.5918C36.9276 28.0589 34.5987 28.3352 33.5427 28.4635C33.2269 28.5029 33.1776 28.2266 33.4638 28.0194C35.319 26.7168 38.3684 27.0918 38.7237 27.526C39.0789 27.9701 38.625 31.0194 36.8881 32.4799C36.6217 32.7069 36.3651 32.5885 36.4835 32.2924C36.8783 31.3155 37.7565 29.1148 37.3421 28.5918Z" fill="white"/>
<defs>
<linearGradient id="paint0_linear_601_2434" x1="48" y1="-1.43051e-06" x2="-4.29153e-06" y2="48" gradientUnits="userSpaceOnUse">
<stop stop-color="white"/>
<stop offset="1" stop-color="white" stop-opacity="0"/>
</linearGradient>
</defs>
</svg>
