<svg width="48" height="48" viewBox="0 0 48 48" fill="none" xmlns="http://www.w3.org/2000/svg">
<rect width="48" height="48" rx="24" fill="url(#paint0_linear_606_545)" fill-opacity="0.2"/>
<g clip-path="url(#clip0_606_545)">
<path d="M32.916 17.8469C32.94 17.8699 32.958 17.8999 32.967 17.9319C33.437 19.4989 33.073 21.2619 31.835 22.4999C30.584 23.7509 28.797 24.1089 27.218 23.6169L18.871 31.9639C18.058 32.7769 16.732 32.8379 15.891 32.0539C15.007 31.2309 14.989 29.8469 15.835 28.9999L24.218 20.6169C23.726 19.0379 24.084 17.2509 25.335 15.9999C26.573 14.7619 28.336 14.3979 29.903 14.8679C29.935 14.8779 29.965 14.8949 29.988 14.9189L30.15 15.0809C30.228 15.1589 30.228 15.2859 30.15 15.3639L27.515 17.9999L29.835 20.3199L32.471 17.6839C32.549 17.6059 32.676 17.6059 32.754 17.6839L32.916 17.8469Z" stroke="white" stroke-width="1.5" stroke-linecap="round" stroke-linejoin="round"/>
<path d="M23.6125 20.0919L19.1505 15.6299C18.3745 14.8539 17.1125 14.8579 16.3315 15.6389L15.6155 16.3549C14.8345 17.1359 14.8305 18.3979 15.6065 19.1739L20.0685 23.6359M27.8745 24.3539L31.9045 28.3839C32.0305 28.5099 32.1205 28.6679 32.1655 28.8409L32.9075 31.7119C33.0995 32.4539 32.4235 33.1289 31.6815 32.9349L28.8165 32.1879C28.6445 32.1429 28.4875 32.0529 28.3615 31.9269L24.3305 27.8959M20.8465 17.3299L17.3065 20.8699" stroke="white" stroke-width="1.5" stroke-linecap="round" stroke-linejoin="round"/>
</g>
<rect x="0.5" y="0.5" width="47" height="47" rx="23.5" stroke="url(#paint1_linear_606_545)" stroke-opacity="0.2"/>
<defs>
<linearGradient id="paint0_linear_606_545" x1="48" y1="0" x2="14.5" y2="33.5" gradientUnits="userSpaceOnUse">
<stop stop-color="white"/>
<stop offset="1" stop-color="white" stop-opacity="0"/>
</linearGradient>
<linearGradient id="paint1_linear_606_545" x1="0" y1="48" x2="48" y2="0" gradientUnits="userSpaceOnUse">
<stop stop-color="white" stop-opacity="0"/>
<stop offset="1" stop-color="white"/>
</linearGradient>
<clipPath id="clip0_606_545">
<rect width="24" height="24" fill="white" transform="translate(12 12)"/>
</clipPath>
</defs>
</svg>
