<svg width="48" height="48" viewBox="0 0 48 48" fill="none" xmlns="http://www.w3.org/2000/svg">
<rect width="48" height="48" rx="24" fill="url(#paint0_linear_606_525)" fill-opacity="0.2"/>
<path d="M32.053 24.474C32.053 29.183 28.236 33 23.527 33C18.818 33 15 29.183 15 24.474C15 19.765 18.817 15.948 23.526 15.948" stroke="white" stroke-width="1.5" stroke-linecap="round" stroke-linejoin="round"/>
<path d="M28.263 24.474C28.263 27.09 26.142 29.211 23.526 29.211C20.91 29.211 18.789 27.09 18.789 24.474C18.789 21.858 20.91 19.737 23.526 19.737M27.32 20.68L23.53 24.47M30.158 15L27.316 17.842V20.684H30.158L33 17.842L31.105 16.895L30.158 15Z" stroke="white" stroke-width="1.5" stroke-linecap="round" stroke-linejoin="round"/>
<rect x="0.5" y="0.5" width="47" height="47" rx="23.5" stroke="url(#paint1_linear_606_525)" stroke-opacity="0.2"/>
<defs>
<linearGradient id="paint0_linear_606_525" x1="48" y1="0" x2="14.5" y2="33.5" gradientUnits="userSpaceOnUse">
<stop stop-color="white"/>
<stop offset="1" stop-color="white" stop-opacity="0"/>
</linearGradient>
<linearGradient id="paint1_linear_606_525" x1="0" y1="48" x2="48" y2="0" gradientUnits="userSpaceOnUse">
<stop stop-color="white" stop-opacity="0"/>
<stop offset="1" stop-color="white"/>
</linearGradient>
</defs>
</svg>
