<svg width="48" height="48" viewBox="0 0 48 48" fill="none" xmlns="http://www.w3.org/2000/svg">
<rect width="48" height="48" rx="4" fill="url(#paint0_linear_601_2431)" fill-opacity="0.2"/>
<path d="M23.8321 10.0354C22.6803 10.0407 21.5806 10.1378 20.6135 10.3073C17.7619 10.8056 17.2443 11.8483 17.2443 13.7721V16.3122H23.9803V17.1588H17.2443H14.7167C12.759 17.1588 11.0434 18.323 10.5083 20.5365C9.88968 23.0742 9.86229 24.6599 10.5083 27.3094C10.9871 29.2824 12.1308 30.6872 14.0886 30.6872H16.4049V27.6425C16.4049 25.4428 18.3287 23.5017 20.6133 23.5017H27.3418C29.2148 23.5017 30.711 21.9761 30.711 20.1165V13.7711C30.711 11.9651 29.1709 10.6095 27.3418 10.3063C26.1845 10.1158 24.9838 10.0292 23.8318 10.0344L23.8321 10.0354ZM20.1889 12.0782C20.8849 12.0782 21.453 12.6496 21.453 13.352C21.453 14.0519 20.8846 14.6181 20.1889 14.6181C19.4907 14.6181 18.9249 14.0522 18.9249 13.352C18.9249 12.6496 19.4907 12.0782 20.1889 12.0782Z" fill="white"/>
<path d="M31.5504 17.1566V20.1168C31.5504 22.4112 29.5841 24.3421 27.342 24.3421H20.6135C18.7703 24.3421 17.2442 25.9025 17.2442 27.7273V34.0727C17.2442 35.8787 18.8319 36.941 20.6135 37.458C22.7458 38.0783 24.7918 38.1904 27.342 37.458C29.0379 36.9723 30.7112 35.9945 30.7112 34.0727V31.5326H23.9827V30.686H30.7112H34.0805C36.0382 30.686 36.7689 29.3352 37.4498 27.3083C38.153 25.2207 38.1231 23.2122 37.4498 20.5354C36.9658 18.6074 36.0418 17.1576 34.0805 17.1576H31.5529L31.5504 17.1566ZM27.7666 33.2277C28.4648 33.2277 29.0306 33.7936 29.0306 34.4938C29.0306 35.1962 28.4648 35.7676 27.7666 35.7676C27.0706 35.7676 26.5025 35.1962 26.5025 34.4938C26.5025 33.7939 27.0709 33.2277 27.7666 33.2277Z" fill="white" fill-opacity="0.25"/>
<defs>
<linearGradient id="paint0_linear_601_2431" x1="48" y1="-1.43051e-06" x2="-4.29153e-06" y2="48" gradientUnits="userSpaceOnUse">
<stop stop-color="white"/>
<stop offset="1" stop-color="white" stop-opacity="0"/>
</linearGradient>
</defs>
</svg>
