<svg width="48" height="48" viewBox="0 0 48 48" fill="none" xmlns="http://www.w3.org/2000/svg">
<rect width="48" height="48" rx="4" fill="url(#paint0_linear_601_2428)" fill-opacity="0.2"/>
<path d="M12.8647 31.2916L21.2806 36.5515C22.3326 37.1827 22.771 36.2885 22.8586 35.7625V26.2946C22.8586 25.0323 21.982 24.1907 21.5436 23.9277L14.4427 19.9827C13.9167 19.4567 13.7063 18.5625 13.9167 18.1417C14.1271 17.7209 15.144 17.9664 15.7577 18.1417C17.511 18.5801 21.3332 19.5093 22.5956 19.7197C23.858 19.9301 24.8749 19.632 25.2256 19.4567C27.4172 18.2294 32.1161 15.5644 33.3785 14.7228C34.6409 13.8812 33.9045 13.3201 33.3785 13.1448C31.0992 12.6188 26.2776 11.5142 25.2256 11.3038C24.1736 11.0934 22.6833 11.3915 22.0696 11.5668C19.352 13.1448 13.7063 16.406 12.8647 16.8267C12.0231 17.2475 11.8127 18.2294 11.8127 18.6677V29.7136C11.8127 30.5552 12.5141 31.1162 12.8647 31.2916Z" fill="white"/>
<path d="M35.1278 31.2909L26.7119 36.5508C25.6599 37.182 25.2216 36.2878 25.1339 35.7618V26.2939C25.1339 25.0316 26.0106 24.19 26.4489 23.927L33.5498 19.982C33.7558 19.719 33.9048 19.193 33.3788 18.93L31.8008 18.141C31.5048 17.9578 31.5189 17.5611 31.8008 17.089C31.958 16.8258 32.2742 16.6682 33.1158 17.089L35.4828 18.141C36.1798 18.4895 36.2104 19.193 36.1798 19.719V29.7129C36.1798 30.5545 35.4785 31.1156 35.1278 31.2909Z" fill="white" fill-opacity="0.25"/>
<defs>
<linearGradient id="paint0_linear_601_2428" x1="48" y1="-1.43051e-06" x2="-4.29153e-06" y2="48" gradientUnits="userSpaceOnUse">
<stop stop-color="white"/>
<stop offset="1" stop-color="white" stop-opacity="0"/>
</linearGradient>
</defs>
</svg>
