<svg width="48" height="48" viewBox="0 0 48 48" fill="none" xmlns="http://www.w3.org/2000/svg">
<rect width="48" height="48" rx="4" fill="url(#paint0_linear_601_2445)" fill-opacity="0.2"/>
<path d="M28.9431 21.3555H34.1685V22.32H32.0956V27.394H31.0591V22.32H28.9431V21.3555ZM20.3491 21.3555V22.32H16.1605V23.8715H19.529V24.836H16.1605V26.4295H20.3491V27.394H15.1241V22.32H15.1237V21.3555H20.3491ZM22.9584 21.358H21.602L26.4603 27.3965H27.8206L25.3912 24.3793L27.8168 21.3626L26.4603 21.3647L24.7121 23.5359L22.9584 21.358ZM24.3502 25.6713L23.671 24.8268L21.5981 27.4011H22.9584L24.3502 25.6713Z" fill="white"/>
<path fill-rule="evenodd" clip-rule="evenodd" d="M15.1604 27.3939L10.2956 21.3529H9V27.3914H10.0365V22.6436L13.8584 27.3939H15.1604Z" fill="white"/>
<path d="M34.4015 27.3571C34.3256 27.3571 34.2611 27.3308 34.207 27.2782C34.1529 27.2256 34.1262 27.1619 34.1269 27.0865C34.1262 27.0131 34.1529 26.9502 34.207 26.8976C34.2611 26.845 34.3256 26.8187 34.4015 26.8187C34.4746 26.8187 34.5385 26.845 34.5925 26.8976C34.6473 26.9502 34.6747 27.0131 34.6754 27.0865C34.6747 27.1363 34.662 27.182 34.6368 27.2228C34.6108 27.2643 34.5778 27.2969 34.5363 27.3204C34.4956 27.3446 34.4507 27.3571 34.4015 27.3571ZM36.1706 24.8132H36.6298V26.5827C36.6292 26.7453 36.594 26.8844 36.5252 27.0014C36.4557 27.1183 36.3595 27.2076 36.2359 27.2706C36.113 27.3328 35.969 27.3647 35.8054 27.3647C35.6558 27.3647 35.5217 27.3377 35.4023 27.2851C35.2829 27.2325 35.1881 27.1536 35.1186 27.0498C35.0483 26.946 35.0139 26.8166 35.0139 26.6616H35.4739C35.4746 26.7294 35.4901 26.7882 35.5195 26.8374C35.549 26.8865 35.5897 26.9238 35.6418 26.9501C35.6944 26.9764 35.7548 26.9896 35.8229 26.9896C35.8967 26.9896 35.9599 26.9744 36.0111 26.9432C36.0624 26.9128 36.1017 26.8671 36.1291 26.8062C36.1558 26.746 36.1699 26.6713 36.1706 26.5827V24.8132ZM38.5196 25.5052C38.5084 25.398 38.4592 25.3142 38.3736 25.2547C38.2872 25.1945 38.1755 25.1648 38.0386 25.1648C37.9424 25.1648 37.8595 25.1793 37.7907 25.2077C37.7219 25.2367 37.6685 25.2755 37.632 25.3246C37.5955 25.3737 37.5772 25.4298 37.5758 25.4928C37.5758 25.5454 37.5884 25.591 37.613 25.6291C37.6376 25.6678 37.6706 25.7004 37.7134 25.7267C37.7555 25.7537 37.8026 25.7758 37.8539 25.7938C37.9058 25.8118 37.9578 25.827 38.0098 25.8395L38.2492 25.8983C38.3455 25.9204 38.4389 25.9502 38.5281 25.9883C38.6172 26.0256 38.698 26.0734 38.7689 26.1308C38.8399 26.1882 38.8961 26.2574 38.9375 26.3384C38.9789 26.4194 39 26.5142 39 26.6235C39 26.7709 38.9621 26.9003 38.8855 27.0124C38.809 27.1238 38.6987 27.211 38.554 27.274C38.4101 27.3363 38.2359 27.3681 38.0309 27.3681C37.8328 27.3681 37.6601 27.3377 37.5147 27.2768C37.3687 27.2166 37.2548 27.128 37.1727 27.0117C37.0905 26.8955 37.0463 26.7536 37.04 26.5868H37.4951C37.5014 26.674 37.5295 26.7467 37.5772 26.8055C37.6256 26.8636 37.6888 26.9066 37.7661 26.9356C37.8441 26.964 37.9311 26.9785 38.0274 26.9785C38.1278 26.9785 38.2163 26.9633 38.2928 26.9335C38.3686 26.9038 38.4283 26.8623 38.4712 26.8083C38.5147 26.755 38.5365 26.692 38.5372 26.6201C38.5365 26.5543 38.5168 26.4996 38.4789 26.4567C38.4403 26.4138 38.3869 26.3779 38.3188 26.3488C38.25 26.3197 38.1699 26.2934 38.0786 26.2706L37.7879 26.1972C37.5779 26.144 37.4114 26.063 37.2899 25.9543C37.1678 25.8457 37.1073 25.7018 37.1073 25.5211C37.1073 25.3731 37.1481 25.243 37.2303 25.1315C37.3117 25.0201 37.4234 24.9336 37.5646 24.872C37.7064 24.8098 37.8665 24.7793 38.0449 24.7793C38.2261 24.7793 38.3848 24.8098 38.5218 24.872C38.6587 24.9336 38.7662 25.0194 38.8441 25.1288C38.922 25.2381 38.9628 25.3634 38.9649 25.5052H38.5196Z" fill="white"/>
<defs>
<linearGradient id="paint0_linear_601_2445" x1="48" y1="-1.43051e-06" x2="-4.29153e-06" y2="48" gradientUnits="userSpaceOnUse">
<stop stop-color="white"/>
<stop offset="1" stop-color="white" stop-opacity="0"/>
</linearGradient>
</defs>
</svg>
