<svg width="60" height="60" viewBox="0 0 60 60" fill="none" xmlns="http://www.w3.org/2000/svg">
<rect width="60" height="60" rx="16" fill="url(#paint0_linear_601_2463)" fill-opacity="0.2"/>
<path d="M36.2964 20.6506C36.9287 20.0183 37.9538 20.0183 38.5861 20.6506L39.3493 21.4138C39.9816 22.0461 39.9816 23.0712 39.3493 23.7035L37.4413 25.6115L34.3884 22.5586L36.2964 20.6506Z" fill="white"/>
<path d="M34.3884 22.5586L37.4413 25.6115L34.3884 28.6644L31.3354 25.6115L34.3884 22.5586Z" fill="white"/>
<path d="M37.4413 25.6115L39.3493 27.5196C39.9816 28.1519 39.9816 29.177 39.3493 29.8093L37.4413 31.7173L34.3884 28.6644L37.4413 25.6115Z" fill="white"/>
<path d="M31.3354 25.6115L34.3884 28.6644L31.3354 31.7173L28.2825 28.6644L31.3354 25.6115Z" fill="white"/>
<path d="M28.2825 28.6644L31.3354 31.7173L28.2825 34.7702L25.2296 31.7173L28.2825 28.6644Z" fill="white"/>
<path d="M25.2296 31.7173L28.2825 34.7702L25.2296 37.8231L22.1767 34.7702L25.2296 31.7173Z" fill="white"/>
<path d="M22.1767 34.7702L25.2296 37.8231L23.7032 39.3496C23.0709 39.9819 22.0458 39.9819 21.4135 39.3496L20.6503 38.5864C20.018 37.9541 20.018 36.929 20.6503 36.2967L22.1767 34.7702Z" fill="white"/>
<path d="M37.4413 31.7173L39.3493 33.6254C39.9816 34.2577 39.9816 35.2828 39.3493 35.9151L38.5861 36.6783C37.9538 37.3106 36.9287 37.3106 36.2964 36.6783L35.5332 35.9151C34.9009 35.2828 34.9009 34.2577 35.5332 33.6254L37.4413 31.7173Z" fill="white"/>
<path d="M30.1906 20.6506C30.8229 20.0183 31.848 20.0183 32.4803 20.6506L34.3884 22.5586L31.3354 25.6115L28.2825 22.5586L30.1906 20.6506Z" fill="white"/>
<path d="M24.0848 20.6506C24.7171 20.0183 25.7422 20.0183 26.3745 20.6506L28.2825 22.5586L26.3745 24.4667C25.7422 25.099 24.7171 25.099 24.0848 24.4667L23.3216 23.7035C22.6893 23.0712 22.6893 22.0461 23.3216 21.4138L24.0848 20.6506Z" fill="white"/>
<path d="M29.4274 21.4138C28.795 22.0462 27.7699 22.046 27.1377 21.4138L28.2825 22.5586L29.4274 21.4138Z" fill="white"/>
<path d="M35.5332 21.4138C34.9008 22.0462 33.8757 22.046 33.2435 21.4138L34.3884 22.5586L35.5332 21.4138Z" fill="white"/>
<path d="M38.5861 30.5725C37.9537 31.2049 37.9539 32.2299 38.5861 32.8622L37.4413 31.7173L38.5861 30.5725Z" fill="white"/>
<path d="M27.1377 23.7035C27.7701 23.071 28.7952 23.0712 29.4274 23.7035L28.2825 22.5586L27.1377 23.7035Z" fill="white"/>
<path d="M36.2964 32.8622C36.9288 32.2298 36.9287 31.2047 36.2964 30.5725L37.4413 31.7173L36.2964 32.8622Z" fill="white"/>
<path d="M33.2435 29.8093C33.8759 29.1769 34.901 29.177 35.5332 29.8093L34.3884 28.6644L33.2435 29.8093Z" fill="white"/>
<path d="M38.5861 26.7564C37.9537 26.1239 37.9539 25.0989 38.5861 24.4667L37.4413 25.6115L38.5861 26.7564Z" fill="white"/>
<path d="M30.1906 26.7564C30.823 26.1239 30.8228 25.0989 30.1906 24.4667L31.3354 25.6115L30.1906 26.7564Z" fill="white"/>
<rect x="0.5" y="0.5" width="59" height="59" rx="15.5" stroke="url(#paint1_linear_601_2463)" stroke-opacity="0.2"/>
<defs>
<linearGradient id="paint0_linear_601_2463" x1="60" y1="0" x2="18.125" y2="41.875" gradientUnits="userSpaceOnUse">
<stop stop-color="white"/>
<stop offset="1" stop-color="white" stop-opacity="0"/>
</linearGradient>
<linearGradient id="paint1_linear_601_2463" x1="0" y1="60" x2="60" y2="0" gradientUnits="userSpaceOnUse">
<stop stop-color="white" stop-opacity="0"/>
<stop offset="1" stop-color="white"/>
</linearGradient>
</defs>
</svg>
