<svg width="48" height="48" viewBox="0 0 48 48" fill="none" xmlns="http://www.w3.org/2000/svg">
<rect width="48" height="48" rx="24" fill="url(#paint0_linear_21_206)" fill-opacity="0.2"/>
<path d="M28 19C28 16.7909 26.2091 15 24 15C21.7909 15 20 16.7909 20 19C20 21.2091 21.7909 23 24 23C26.2091 23 28 21.2091 28 19Z" stroke="white" stroke-width="1.5" stroke-linecap="round" stroke-linejoin="round"/>
<path d="M20 26.5714H28C29.0609 26.5714 30.0783 26.9928 30.8284 27.743C31.5786 28.4931 32 29.5105 32 30.5714V32C32 32.2652 31.8946 32.5196 31.7071 32.7071C31.5196 32.8946 31.2652 33 31 33H17C16.7348 33 16.4804 32.8946 16.2929 32.7071C16.1054 32.5196 16 32.2652 16 32V30.5714C16 29.5105 16.4214 28.4931 17.1716 27.743C17.9217 26.9928 18.9391 26.5714 20 26.5714Z" stroke="white" stroke-width="1.5" stroke-linecap="round" stroke-linejoin="round"/>
<rect x="0.5" y="0.5" width="47" height="47" rx="23.5" stroke="url(#paint1_linear_21_206)" stroke-opacity="0.2"/>
<defs>
<linearGradient id="paint0_linear_21_206" x1="48" y1="0" x2="14.5" y2="33.5" gradientUnits="userSpaceOnUse">
<stop stop-color="white"/>
<stop offset="1" stop-color="white" stop-opacity="0"/>
</linearGradient>
<linearGradient id="paint1_linear_21_206" x1="0" y1="48" x2="48" y2="0" gradientUnits="userSpaceOnUse">
<stop stop-color="white" stop-opacity="0"/>
<stop offset="1" stop-color="white"/>
</linearGradient>
</defs>
</svg>
