<svg width="48" height="48" viewBox="0 0 48 48" fill="none" xmlns="http://www.w3.org/2000/svg">
<rect width="48" height="48" rx="24" fill="url(#paint0_linear_606_504)" fill-opacity="0.2"/>
<path d="M24 33C19.029 33 15 28.971 15 24C15 19.029 19.029 15 24 15C28.971 15 33 19.029 33 24C33 28.971 28.971 33 24 33Z" stroke="white" stroke-width="1.5" stroke-linecap="round" stroke-linejoin="round"/>
<path d="M24 25.25V25C24 24.183 24.505 23.74 25.011 23.4C25.505 23.067 26 22.633 26 21.833C26 20.728 25.105 19.833 24 19.833C22.895 19.833 22 20.728 22 21.833" stroke="white" stroke-width="1.5" stroke-linecap="round" stroke-linejoin="round"/>
<circle cx="24" cy="28.2578" r="1" fill="white"/>
<rect x="0.5" y="0.5" width="47" height="47" rx="23.5" stroke="url(#paint1_linear_606_504)" stroke-opacity="0.2"/>
<defs>
<linearGradient id="paint0_linear_606_504" x1="48" y1="0" x2="14.5" y2="33.5" gradientUnits="userSpaceOnUse">
<stop stop-color="white"/>
<stop offset="1" stop-color="white" stop-opacity="0"/>
</linearGradient>
<linearGradient id="paint1_linear_606_504" x1="0" y1="48" x2="48" y2="0" gradientUnits="userSpaceOnUse">
<stop stop-color="white" stop-opacity="0"/>
<stop offset="1" stop-color="white"/>
</linearGradient>
</defs>
</svg>
