<svg width="1232" height="937" viewBox="0 0 1232 937" fill="none" xmlns="http://www.w3.org/2000/svg">
<g opacity="0.41" filter="url(#filter0_f_0_5)">
<path d="M319.432 555.526L132.612 145.254C128.379 135.958 139.165 127.045 147.497 132.953L1069.69 786.823C1079.06 793.467 1071.67 808.086 1060.76 804.473L325.389 560.874C322.745 559.999 320.586 558.06 319.432 555.526Z" fill="#2413D2"/>
</g>
<g opacity="0.41" filter="url(#filter1_f_0_5)">
<path d="M319.432 555.526L132.612 145.254C128.379 135.958 139.165 127.045 147.497 132.953L1069.69 786.823C1079.06 793.467 1071.67 808.086 1060.76 804.473L325.389 560.874C322.745 559.999 320.586 558.06 319.432 555.526Z" fill="#2413D2"/>
</g>
<g opacity="0.18" filter="url(#filter2_f_0_5)">
<path d="M319.432 555.526L132.612 145.254C128.379 135.958 139.165 127.045 147.497 132.953L1069.69 786.823C1079.06 793.467 1071.67 808.086 1060.76 804.473L325.389 560.874C322.745 559.999 320.586 558.06 319.432 555.526Z" fill="#2413D2"/>
</g>
<g opacity="0.41" filter="url(#filter3_f_0_5)">
<path d="M465.034 727.683L295.99 241.691C292.739 232.346 303.582 224.461 311.47 230.432L1022.48 768.684C1030.52 774.769 1025.52 787.578 1015.49 786.61L473.519 734.351C469.631 733.976 466.318 731.372 465.034 727.683Z" fill="#2413D2"/>
</g>
<g opacity="0.41" filter="url(#filter4_f_0_5)">
<path d="M465.034 727.683L295.99 241.691C292.739 232.346 303.582 224.461 311.47 230.432L1022.48 768.684C1030.52 774.769 1025.52 787.578 1015.49 786.61L473.519 734.351C469.631 733.976 466.318 731.372 465.034 727.683Z" fill="#2413D2"/>
</g>
<g opacity="0.41" filter="url(#filter5_f_0_5)">
<path d="M465.034 727.683L295.99 241.691C292.739 232.346 303.582 224.461 311.47 230.432L1022.48 768.684C1030.52 774.769 1025.52 787.578 1015.49 786.61L473.519 734.351C469.631 733.976 466.318 731.372 465.034 727.683Z" fill="#2413D2"/>
</g>
<g opacity="0.41" filter="url(#filter6_f_0_5)">
<path d="M465.034 727.683L295.99 241.691C292.739 232.346 303.582 224.461 311.47 230.432L1022.48 768.684C1030.52 774.769 1025.52 787.578 1015.49 786.61L473.519 734.351C469.631 733.976 466.318 731.372 465.034 727.683Z" fill="#2413D2"/>
</g>
<g opacity="0.41" filter="url(#filter7_f_0_5)">
<path d="M551.859 678.002L310.94 255.721C305.481 246.152 317.242 236.08 325.857 242.945L947.412 738.218C955.581 744.727 949.556 757.827 939.297 755.859L558.662 682.867C555.792 682.317 553.307 680.539 551.859 678.002Z" fill="#4E3EFB"/>
</g>
<g opacity="0.41" filter="url(#filter8_f_0_5)">
<path d="M551.859 678.002L310.94 255.721C305.481 246.152 317.242 236.08 325.857 242.945L947.412 738.218C955.581 744.727 949.556 757.827 939.297 755.859L558.662 682.867C555.792 682.317 553.307 680.539 551.859 678.002Z" fill="#4E3EFB"/>
</g>
<g opacity="0.41" filter="url(#filter9_f_0_5)">
<path d="M551.859 678.002L310.94 255.721C305.481 246.152 317.242 236.08 325.857 242.945L947.412 738.218C955.581 744.727 949.556 757.827 939.297 755.859L558.662 682.867C555.792 682.317 553.307 680.539 551.859 678.002Z" fill="#4E3EFB"/>
</g>
<g opacity="0.65">
<g opacity="0.41" filter="url(#filter10_f_0_5)">
<path d="M464.963 696.398L254.001 202.149C249.609 191.859 262.851 183.222 270.497 191.388L776.289 731.534C782.787 738.474 776.845 749.712 767.451 748.25L472.622 702.353C469.212 701.823 466.317 699.572 464.963 696.398Z" fill="#A9FDCA"/>
</g>
<g opacity="0.41" filter="url(#filter11_f_0_5)">
<path d="M474.534 644.461L315.098 270.931C310.707 260.641 323.948 252.004 331.595 260.17L713.848 668.387C720.347 675.327 714.405 686.566 705.011 685.103L482.193 650.417C478.783 649.886 475.888 647.635 474.534 644.461Z" fill="#A9FDCA"/>
</g>
<g opacity="0.41" filter="url(#filter12_f_0_5)">
<path d="M479.37 618.223L345.966 305.68C341.574 295.39 354.815 286.753 362.462 294.919L682.304 636.486C688.803 643.426 682.861 654.664 673.467 653.202L487.029 624.179C483.619 623.648 480.724 621.397 479.37 618.223Z" fill="#A9FDCA"/>
</g>
<g opacity="0.41" filter="url(#filter13_f_0_5)">
<path d="M483.079 598.09L369.649 332.343C365.257 322.054 378.499 313.416 386.146 321.582L658.099 612.007C664.597 618.947 658.656 630.185 649.261 628.723L490.738 604.045C487.328 603.515 484.433 601.264 483.079 598.09Z" fill="#A9FDCA"/>
</g>
<g opacity="0.41" filter="url(#filter14_f_0_5)">
<path d="M485.989 582.293L388.231 353.263C383.839 342.973 397.081 334.336 404.728 342.502L639.106 592.8C645.605 599.74 639.663 610.979 630.269 609.516L493.648 588.248C490.238 587.717 487.343 585.467 485.989 582.293Z" fill="#A9FDCA"/>
</g>
</g>
<g opacity="0.1" filter="url(#filter15_f_0_5)">
<path d="M485.989 582.293L388.231 353.263C383.839 342.973 397.081 334.336 404.728 342.502L639.106 592.8C645.605 599.74 639.663 610.979 630.269 609.516L493.648 588.248C490.239 587.717 487.344 585.466 485.989 582.293Z" fill="white"/>
</g>
<g opacity="0.68">
<g opacity="0.1" filter="url(#filter16_f_0_5)">
<path d="M649.165 692.283L274.234 219L749.793 695.131C756.741 702.087 750.531 713.843 740.869 712.025L655.154 695.901C652.787 695.455 650.66 694.171 649.165 692.283Z" fill="white"/>
</g>
<g opacity="0.1" filter="url(#filter17_f_0_5)">
<path d="M649.165 692.283L274.234 219L749.793 695.131C756.741 702.087 750.531 713.843 740.869 712.025L655.154 695.901C652.787 695.455 650.66 694.171 649.165 692.283Z" fill="white"/>
</g>
<g opacity="0.1" filter="url(#filter18_f_0_5)">
<path d="M626.814 651.957L318.617 263.382L705.981 650.746C712.935 657.7 706.729 669.461 697.064 667.645L632.802 655.571C630.436 655.126 628.31 653.843 626.814 651.957Z" fill="white"/>
</g>
<g opacity="0.1" filter="url(#filter19_f_0_5)">
<path d="M611.405 624.709L348.606 293.37L675.994 620.758C682.947 627.712 676.741 639.473 667.076 637.657L617.393 628.322C615.027 627.878 612.901 626.595 611.405 624.709Z" fill="white"/>
</g>
<g opacity="0.1" filter="url(#filter20_f_0_5)">
<path d="M601.542 607.27L367.797 312.563L656.801 601.566C663.754 608.52 657.548 620.281 647.883 618.465L607.53 610.883C605.164 610.439 603.038 609.156 601.542 607.27Z" fill="white"/>
</g>
<g opacity="0.1" filter="url(#filter21_f_0_5)">
<path d="M601.542 607.27L367.797 312.563L656.801 601.566C663.754 608.52 657.548 620.281 647.883 618.465L607.53 610.883C605.164 610.439 603.038 609.156 601.542 607.27Z" fill="white"/>
</g>
<g opacity="0.1" filter="url(#filter22_f_0_5)">
<path d="M601.542 607.27L367.797 312.563L656.801 601.566C663.754 608.52 657.548 620.281 647.883 618.465L607.53 610.883C605.164 610.439 603.038 609.156 601.542 607.27Z" fill="white"/>
</g>
<g opacity="0.1" filter="url(#filter23_f_0_5)">
<path d="M611.405 624.709L348.606 293.37L675.994 620.758C682.947 627.712 676.741 639.473 667.076 637.657L617.393 628.322C615.027 627.878 612.901 626.595 611.405 624.709Z" fill="white"/>
</g>
<g opacity="0.1" filter="url(#filter24_f_0_5)">
<path d="M626.814 651.957L318.617 263.382L705.981 650.746C712.935 657.7 706.729 669.461 697.064 667.645L632.802 655.571C630.436 655.126 628.31 653.843 626.814 651.957Z" fill="white"/>
</g>
<g opacity="0.1" filter="url(#filter25_f_0_5)">
<path d="M649.165 692.283L274.234 219L749.793 695.131C756.741 702.087 750.531 713.843 740.869 712.025L655.154 695.901C652.787 695.455 650.66 694.171 649.165 692.283Z" fill="white"/>
</g>
<g opacity="0.1" filter="url(#filter26_f_0_5)">
<path d="M649.165 692.283L274.234 219L749.793 695.131C756.741 702.087 750.531 713.843 740.869 712.025L655.154 695.901C652.787 695.455 650.66 694.171 649.165 692.283Z" fill="white"/>
</g>
<g opacity="0.1" filter="url(#filter27_f_0_5)">
<path d="M649.165 692.283L274.234 219L749.793 695.131C756.741 702.087 750.531 713.843 740.869 712.025L655.154 695.901C652.787 695.455 650.66 694.171 649.165 692.283Z" fill="white"/>
</g>
</g>
<g opacity="0.1" filter="url(#filter28_f_0_5)">
<path d="M771.894 665.149L450.141 345.359L841.754 654.027C849.476 660.113 844.699 672.521 834.89 671.858L778.269 668.033C775.866 667.871 773.602 666.847 771.894 665.149Z" fill="#00C2FF"/>
</g>
<g opacity="0.1" filter="url(#filter29_f_0_5)">
<path d="M771.894 665.149L450.141 345.359L841.754 654.027C849.476 660.113 844.699 672.521 834.89 671.858L778.269 668.033C775.866 667.871 773.602 666.847 771.894 665.149Z" fill="#00C2FF"/>
</g>
<g opacity="0.1" filter="url(#filter30_f_0_5)">
<path d="M771.894 665.149L450.141 345.359L841.754 654.027C849.476 660.113 844.699 672.521 834.89 671.858L778.269 668.033C775.866 667.871 773.602 666.847 771.894 665.149Z" fill="#00C2FF"/>
</g>
<g opacity="0.1" filter="url(#filter31_f_0_5)">
<path d="M771.894 665.149L450.141 345.359L841.754 654.027C849.476 660.113 844.699 672.521 834.89 671.858L778.269 668.033C775.866 667.871 773.602 666.847 771.894 665.149Z" fill="#00C2FF"/>
</g>
<g opacity="0.1" filter="url(#filter32_f_0_5)">
<path d="M771.894 665.149L450.141 345.359L841.754 654.027C849.476 660.113 844.699 672.521 834.89 671.858L778.269 668.033C775.866 667.871 773.602 666.847 771.894 665.149Z" fill="#00C2FF"/>
</g>
<g opacity="0.1" filter="url(#filter33_f_0_5)">
<path d="M771.894 665.149L450.141 345.359L841.754 654.027C849.476 660.113 844.699 672.521 834.89 671.858L778.269 668.033C775.866 667.871 773.602 666.847 771.894 665.149Z" fill="#00C2FF"/>
</g>
<g opacity="0.1" filter="url(#filter34_f_0_5)">
<path d="M771.894 665.149L450.141 345.359L841.754 654.027C849.476 660.113 844.699 672.521 834.89 671.858L778.269 668.033C775.866 667.871 773.602 666.847 771.894 665.149Z" fill="#00C2FF"/>
</g>
<g opacity="0.1" filter="url(#filter35_f_0_5)">
<path d="M771.894 665.149L450.141 345.359L841.754 654.027C849.476 660.113 844.699 672.521 834.89 671.858L778.269 668.033C775.866 667.871 773.602 666.847 771.894 665.149Z" fill="#00C2FF"/>
</g>
<g opacity="0.1" filter="url(#filter36_f_0_5)">
<path d="M770.739 680.322L323.141 235.455L876.52 671.627C884.242 677.713 879.465 690.121 869.656 689.458L777.114 683.207C774.711 683.044 772.447 682.02 770.739 680.322Z" fill="white"/>
</g>
<g opacity="0.1" filter="url(#filter37_f_0_5)">
<path d="M770.739 680.322L323.141 235.455L876.52 671.627C884.242 677.713 879.465 690.121 869.656 689.458L777.114 683.207C774.711 683.044 772.447 682.02 770.739 680.322Z" fill="white"/>
</g>
<g opacity="0.1" filter="url(#filter38_f_0_5)">
<path d="M770.739 680.322L323.141 235.455L876.52 671.627C884.242 677.713 879.465 690.121 869.656 689.458L777.114 683.207C774.711 683.044 772.447 682.02 770.739 680.322Z" fill="white"/>
</g>
<g opacity="0.1" filter="url(#filter39_f_0_5)">
<path d="M737.77 635.355L382.449 282.202L817.212 624.881C824.934 630.967 820.157 643.374 810.348 642.712L744.146 638.24C741.743 638.077 739.479 637.053 737.77 635.355Z" fill="white"/>
</g>
<g opacity="0.1" filter="url(#filter40_f_0_5)">
<path d="M737.77 635.355L382.449 282.202L817.212 624.881C824.934 630.967 820.157 643.374 810.348 642.712L744.146 638.24C741.743 638.077 739.479 637.053 737.77 635.355Z" fill="white"/>
</g>
<g opacity="0.1" filter="url(#filter41_f_0_5)">
<path d="M737.77 635.355L382.449 282.202L817.212 624.881C824.934 630.967 820.157 643.374 810.348 642.712L744.146 638.24C741.743 638.077 739.479 637.053 737.77 635.355Z" fill="white"/>
</g>
<g opacity="0.1" filter="url(#filter42_f_0_5)">
<path d="M709.758 597.149L432.84 321.921L766.82 585.163C774.542 591.249 769.765 603.657 759.956 602.994L716.133 600.034C713.73 599.871 711.466 598.847 709.758 597.149Z" fill="white"/>
</g>
<g opacity="0.1" filter="url(#filter43_f_0_5)">
<path d="M737.77 635.355L382.449 282.202L817.212 624.881C824.934 630.967 820.157 643.374 810.348 642.712L744.146 638.24C741.743 638.077 739.479 637.053 737.77 635.355Z" fill="white"/>
</g>
<g opacity="0.1" filter="url(#filter44_f_0_5)">
<path d="M737.77 635.355L382.449 282.202L817.212 624.881C824.934 630.967 820.157 643.374 810.348 642.712L744.146 638.24C741.743 638.077 739.479 637.053 737.77 635.355Z" fill="white"/>
</g>
<defs>
<filter id="filter0_f_0_5" x="0.661194" y="0.0512695" width="1204.31" height="935.987" filterUnits="userSpaceOnUse" color-interpolation-filters="sRGB">
<feFlood flood-opacity="0" result="BackgroundImageFix"/>
<feBlend mode="normal" in="SourceGraphic" in2="BackgroundImageFix" result="shape"/>
<feGaussianBlur stdDeviation="65.5" result="effect1_foregroundBlur_0_5"/>
</filter>
<filter id="filter1_f_0_5" x="81.6612" y="81.0513" width="1042.31" height="773.987" filterUnits="userSpaceOnUse" color-interpolation-filters="sRGB">
<feFlood flood-opacity="0" result="BackgroundImageFix"/>
<feBlend mode="normal" in="SourceGraphic" in2="BackgroundImageFix" result="shape"/>
<feGaussianBlur stdDeviation="25" result="effect1_foregroundBlur_0_5"/>
</filter>
<filter id="filter2_f_0_5" x="111.661" y="111.051" width="982.311" height="713.987" filterUnits="userSpaceOnUse" color-interpolation-filters="sRGB">
<feFlood flood-opacity="0" result="BackgroundImageFix"/>
<feBlend mode="normal" in="SourceGraphic" in2="BackgroundImageFix" result="shape"/>
<feGaussianBlur stdDeviation="10" result="effect1_foregroundBlur_0_5"/>
</filter>
<filter id="filter3_f_0_5" x="164.398" y="97.3559" width="993.077" height="820.306" filterUnits="userSpaceOnUse" color-interpolation-filters="sRGB">
<feFlood flood-opacity="0" result="BackgroundImageFix"/>
<feBlend mode="normal" in="SourceGraphic" in2="BackgroundImageFix" result="shape"/>
<feGaussianBlur stdDeviation="65.5" result="effect1_foregroundBlur_0_5"/>
</filter>
<filter id="filter4_f_0_5" x="164.398" y="97.3559" width="993.077" height="820.306" filterUnits="userSpaceOnUse" color-interpolation-filters="sRGB">
<feFlood flood-opacity="0" result="BackgroundImageFix"/>
<feBlend mode="normal" in="SourceGraphic" in2="BackgroundImageFix" result="shape"/>
<feGaussianBlur stdDeviation="65.5" result="effect1_foregroundBlur_0_5"/>
</filter>
<filter id="filter5_f_0_5" x="164.398" y="97.3559" width="993.077" height="820.306" filterUnits="userSpaceOnUse" color-interpolation-filters="sRGB">
<feFlood flood-opacity="0" result="BackgroundImageFix"/>
<feBlend mode="normal" in="SourceGraphic" in2="BackgroundImageFix" result="shape"/>
<feGaussianBlur stdDeviation="65.5" result="effect1_foregroundBlur_0_5"/>
</filter>
<filter id="filter6_f_0_5" x="164.398" y="97.3559" width="993.077" height="820.306" filterUnits="userSpaceOnUse" color-interpolation-filters="sRGB">
<feFlood flood-opacity="0" result="BackgroundImageFix"/>
<feBlend mode="normal" in="SourceGraphic" in2="BackgroundImageFix" result="shape"/>
<feGaussianBlur stdDeviation="65.5" result="effect1_foregroundBlur_0_5"/>
</filter>
<filter id="filter7_f_0_5" x="249.547" y="180.684" width="761.674" height="635.375" filterUnits="userSpaceOnUse" color-interpolation-filters="sRGB">
<feFlood flood-opacity="0" result="BackgroundImageFix"/>
<feBlend mode="normal" in="SourceGraphic" in2="BackgroundImageFix" result="shape"/>
<feGaussianBlur stdDeviation="30" result="effect1_foregroundBlur_0_5"/>
</filter>
<filter id="filter8_f_0_5" x="249.547" y="180.684" width="761.674" height="635.375" filterUnits="userSpaceOnUse" color-interpolation-filters="sRGB">
<feFlood flood-opacity="0" result="BackgroundImageFix"/>
<feBlend mode="normal" in="SourceGraphic" in2="BackgroundImageFix" result="shape"/>
<feGaussianBlur stdDeviation="30" result="effect1_foregroundBlur_0_5"/>
</filter>
<filter id="filter9_f_0_5" x="249.547" y="180.684" width="761.674" height="635.375" filterUnits="userSpaceOnUse" color-interpolation-filters="sRGB">
<feFlood flood-opacity="0" result="BackgroundImageFix"/>
<feBlend mode="normal" in="SourceGraphic" in2="BackgroundImageFix" result="shape"/>
<feGaussianBlur stdDeviation="30" result="effect1_foregroundBlur_0_5"/>
</filter>
<filter id="filter10_f_0_5" x="122.129" y="57.1477" width="787.894" height="822.232" filterUnits="userSpaceOnUse" color-interpolation-filters="sRGB">
<feFlood flood-opacity="0" result="BackgroundImageFix"/>
<feBlend mode="normal" in="SourceGraphic" in2="BackgroundImageFix" result="shape"/>
<feGaussianBlur stdDeviation="65.5" result="effect1_foregroundBlur_0_5"/>
</filter>
<filter id="filter11_f_0_5" x="183.227" y="125.93" width="664.356" height="690.303" filterUnits="userSpaceOnUse" color-interpolation-filters="sRGB">
<feFlood flood-opacity="0" result="BackgroundImageFix"/>
<feBlend mode="normal" in="SourceGraphic" in2="BackgroundImageFix" result="shape"/>
<feGaussianBlur stdDeviation="65.5" result="effect1_foregroundBlur_0_5"/>
</filter>
<filter id="filter12_f_0_5" x="214.094" y="160.679" width="601.945" height="623.653" filterUnits="userSpaceOnUse" color-interpolation-filters="sRGB">
<feFlood flood-opacity="0" result="BackgroundImageFix"/>
<feBlend mode="normal" in="SourceGraphic" in2="BackgroundImageFix" result="shape"/>
<feGaussianBlur stdDeviation="65.5" result="effect1_foregroundBlur_0_5"/>
</filter>
<filter id="filter13_f_0_5" x="237.777" y="187.342" width="554.056" height="572.511" filterUnits="userSpaceOnUse" color-interpolation-filters="sRGB">
<feFlood flood-opacity="0" result="BackgroundImageFix"/>
<feBlend mode="normal" in="SourceGraphic" in2="BackgroundImageFix" result="shape"/>
<feGaussianBlur stdDeviation="65.5" result="effect1_foregroundBlur_0_5"/>
</filter>
<filter id="filter14_f_0_5" x="256.359" y="208.262" width="516.481" height="532.384" filterUnits="userSpaceOnUse" color-interpolation-filters="sRGB">
<feFlood flood-opacity="0" result="BackgroundImageFix"/>
<feBlend mode="normal" in="SourceGraphic" in2="BackgroundImageFix" result="shape"/>
<feGaussianBlur stdDeviation="65.5" result="effect1_foregroundBlur_0_5"/>
</filter>
<filter id="filter15_f_0_5" x="256.359" y="208.262" width="516.481" height="532.384" filterUnits="userSpaceOnUse" color-interpolation-filters="sRGB">
<feFlood flood-opacity="0" result="BackgroundImageFix"/>
<feBlend mode="normal" in="SourceGraphic" in2="BackgroundImageFix" result="shape"/>
<feGaussianBlur stdDeviation="65.5" result="effect1_foregroundBlur_0_5"/>
</filter>
<filter id="filter16_f_0_5" x="234.234" y="179" width="558.521" height="573.214" filterUnits="userSpaceOnUse" color-interpolation-filters="sRGB">
<feFlood flood-opacity="0" result="BackgroundImageFix"/>
<feBlend mode="normal" in="SourceGraphic" in2="BackgroundImageFix" result="shape"/>
<feGaussianBlur stdDeviation="20" result="effect1_foregroundBlur_0_5"/>
</filter>
<filter id="filter17_f_0_5" x="234.234" y="179" width="558.521" height="573.214" filterUnits="userSpaceOnUse" color-interpolation-filters="sRGB">
<feFlood flood-opacity="0" result="BackgroundImageFix"/>
<feBlend mode="normal" in="SourceGraphic" in2="BackgroundImageFix" result="shape"/>
<feGaussianBlur stdDeviation="20" result="effect1_foregroundBlur_0_5"/>
</filter>
<filter id="filter18_f_0_5" x="278.617" y="223.382" width="470.332" height="484.451" filterUnits="userSpaceOnUse" color-interpolation-filters="sRGB">
<feFlood flood-opacity="0" result="BackgroundImageFix"/>
<feBlend mode="normal" in="SourceGraphic" in2="BackgroundImageFix" result="shape"/>
<feGaussianBlur stdDeviation="20" result="effect1_foregroundBlur_0_5"/>
</filter>
<filter id="filter19_f_0_5" x="308.606" y="253.37" width="410.355" height="424.475" filterUnits="userSpaceOnUse" color-interpolation-filters="sRGB">
<feFlood flood-opacity="0" result="BackgroundImageFix"/>
<feBlend mode="normal" in="SourceGraphic" in2="BackgroundImageFix" result="shape"/>
<feGaussianBlur stdDeviation="20" result="effect1_foregroundBlur_0_5"/>
</filter>
<filter id="filter20_f_0_5" x="327.797" y="272.563" width="371.971" height="386.091" filterUnits="userSpaceOnUse" color-interpolation-filters="sRGB">
<feFlood flood-opacity="0" result="BackgroundImageFix"/>
<feBlend mode="normal" in="SourceGraphic" in2="BackgroundImageFix" result="shape"/>
<feGaussianBlur stdDeviation="20" result="effect1_foregroundBlur_0_5"/>
</filter>
<filter id="filter21_f_0_5" x="327.797" y="272.563" width="371.971" height="386.091" filterUnits="userSpaceOnUse" color-interpolation-filters="sRGB">
<feFlood flood-opacity="0" result="BackgroundImageFix"/>
<feBlend mode="normal" in="SourceGraphic" in2="BackgroundImageFix" result="shape"/>
<feGaussianBlur stdDeviation="20" result="effect1_foregroundBlur_0_5"/>
</filter>
<filter id="filter22_f_0_5" x="327.797" y="272.563" width="371.971" height="386.091" filterUnits="userSpaceOnUse" color-interpolation-filters="sRGB">
<feFlood flood-opacity="0" result="BackgroundImageFix"/>
<feBlend mode="normal" in="SourceGraphic" in2="BackgroundImageFix" result="shape"/>
<feGaussianBlur stdDeviation="20" result="effect1_foregroundBlur_0_5"/>
</filter>
<filter id="filter23_f_0_5" x="308.606" y="253.37" width="410.355" height="424.475" filterUnits="userSpaceOnUse" color-interpolation-filters="sRGB">
<feFlood flood-opacity="0" result="BackgroundImageFix"/>
<feBlend mode="normal" in="SourceGraphic" in2="BackgroundImageFix" result="shape"/>
<feGaussianBlur stdDeviation="20" result="effect1_foregroundBlur_0_5"/>
</filter>
<filter id="filter24_f_0_5" x="278.617" y="223.382" width="470.332" height="484.451" filterUnits="userSpaceOnUse" color-interpolation-filters="sRGB">
<feFlood flood-opacity="0" result="BackgroundImageFix"/>
<feBlend mode="normal" in="SourceGraphic" in2="BackgroundImageFix" result="shape"/>
<feGaussianBlur stdDeviation="20" result="effect1_foregroundBlur_0_5"/>
</filter>
<filter id="filter25_f_0_5" x="234.234" y="179" width="558.521" height="573.214" filterUnits="userSpaceOnUse" color-interpolation-filters="sRGB">
<feFlood flood-opacity="0" result="BackgroundImageFix"/>
<feBlend mode="normal" in="SourceGraphic" in2="BackgroundImageFix" result="shape"/>
<feGaussianBlur stdDeviation="20" result="effect1_foregroundBlur_0_5"/>
</filter>
<filter id="filter26_f_0_5" x="234.234" y="179" width="558.521" height="573.214" filterUnits="userSpaceOnUse" color-interpolation-filters="sRGB">
<feFlood flood-opacity="0" result="BackgroundImageFix"/>
<feBlend mode="normal" in="SourceGraphic" in2="BackgroundImageFix" result="shape"/>
<feGaussianBlur stdDeviation="20" result="effect1_foregroundBlur_0_5"/>
</filter>
<filter id="filter27_f_0_5" x="234.234" y="179" width="558.521" height="573.214" filterUnits="userSpaceOnUse" color-interpolation-filters="sRGB">
<feFlood flood-opacity="0" result="BackgroundImageFix"/>
<feBlend mode="normal" in="SourceGraphic" in2="BackgroundImageFix" result="shape"/>
<feGaussianBlur stdDeviation="20" result="effect1_foregroundBlur_0_5"/>
</filter>
<filter id="filter28_f_0_5" x="410.141" y="305.359" width="475.449" height="406.525" filterUnits="userSpaceOnUse" color-interpolation-filters="sRGB">
<feFlood flood-opacity="0" result="BackgroundImageFix"/>
<feBlend mode="normal" in="SourceGraphic" in2="BackgroundImageFix" result="shape"/>
<feGaussianBlur stdDeviation="20" result="effect1_foregroundBlur_0_5"/>
</filter>
<filter id="filter29_f_0_5" x="410.141" y="305.359" width="475.449" height="406.525" filterUnits="userSpaceOnUse" color-interpolation-filters="sRGB">
<feFlood flood-opacity="0" result="BackgroundImageFix"/>
<feBlend mode="normal" in="SourceGraphic" in2="BackgroundImageFix" result="shape"/>
<feGaussianBlur stdDeviation="20" result="effect1_foregroundBlur_0_5"/>
</filter>
<filter id="filter30_f_0_5" x="410.141" y="305.359" width="475.449" height="406.525" filterUnits="userSpaceOnUse" color-interpolation-filters="sRGB">
<feFlood flood-opacity="0" result="BackgroundImageFix"/>
<feBlend mode="normal" in="SourceGraphic" in2="BackgroundImageFix" result="shape"/>
<feGaussianBlur stdDeviation="20" result="effect1_foregroundBlur_0_5"/>
</filter>
<filter id="filter31_f_0_5" x="410.141" y="305.359" width="475.449" height="406.525" filterUnits="userSpaceOnUse" color-interpolation-filters="sRGB">
<feFlood flood-opacity="0" result="BackgroundImageFix"/>
<feBlend mode="normal" in="SourceGraphic" in2="BackgroundImageFix" result="shape"/>
<feGaussianBlur stdDeviation="20" result="effect1_foregroundBlur_0_5"/>
</filter>
<filter id="filter32_f_0_5" x="410.141" y="305.359" width="475.449" height="406.525" filterUnits="userSpaceOnUse" color-interpolation-filters="sRGB">
<feFlood flood-opacity="0" result="BackgroundImageFix"/>
<feBlend mode="normal" in="SourceGraphic" in2="BackgroundImageFix" result="shape"/>
<feGaussianBlur stdDeviation="20" result="effect1_foregroundBlur_0_5"/>
</filter>
<filter id="filter33_f_0_5" x="410.141" y="305.359" width="475.449" height="406.525" filterUnits="userSpaceOnUse" color-interpolation-filters="sRGB">
<feFlood flood-opacity="0" result="BackgroundImageFix"/>
<feBlend mode="normal" in="SourceGraphic" in2="BackgroundImageFix" result="shape"/>
<feGaussianBlur stdDeviation="20" result="effect1_foregroundBlur_0_5"/>
</filter>
<filter id="filter34_f_0_5" x="410.141" y="305.359" width="475.449" height="406.525" filterUnits="userSpaceOnUse" color-interpolation-filters="sRGB">
<feFlood flood-opacity="0" result="BackgroundImageFix"/>
<feBlend mode="normal" in="SourceGraphic" in2="BackgroundImageFix" result="shape"/>
<feGaussianBlur stdDeviation="20" result="effect1_foregroundBlur_0_5"/>
</filter>
<filter id="filter35_f_0_5" x="410.141" y="305.359" width="475.449" height="406.525" filterUnits="userSpaceOnUse" color-interpolation-filters="sRGB">
<feFlood flood-opacity="0" result="BackgroundImageFix"/>
<feBlend mode="normal" in="SourceGraphic" in2="BackgroundImageFix" result="shape"/>
<feGaussianBlur stdDeviation="20" result="effect1_foregroundBlur_0_5"/>
</filter>
<filter id="filter36_f_0_5" x="283.141" y="195.455" width="637.215" height="534.029" filterUnits="userSpaceOnUse" color-interpolation-filters="sRGB">
<feFlood flood-opacity="0" result="BackgroundImageFix"/>
<feBlend mode="normal" in="SourceGraphic" in2="BackgroundImageFix" result="shape"/>
<feGaussianBlur stdDeviation="20" result="effect1_foregroundBlur_0_5"/>
</filter>
<filter id="filter37_f_0_5" x="283.141" y="195.455" width="637.215" height="534.029" filterUnits="userSpaceOnUse" color-interpolation-filters="sRGB">
<feFlood flood-opacity="0" result="BackgroundImageFix"/>
<feBlend mode="normal" in="SourceGraphic" in2="BackgroundImageFix" result="shape"/>
<feGaussianBlur stdDeviation="20" result="effect1_foregroundBlur_0_5"/>
</filter>
<filter id="filter38_f_0_5" x="283.141" y="195.455" width="637.215" height="534.029" filterUnits="userSpaceOnUse" color-interpolation-filters="sRGB">
<feFlood flood-opacity="0" result="BackgroundImageFix"/>
<feBlend mode="normal" in="SourceGraphic" in2="BackgroundImageFix" result="shape"/>
<feGaussianBlur stdDeviation="20" result="effect1_foregroundBlur_0_5"/>
</filter>
<filter id="filter39_f_0_5" x="342.449" y="242.202" width="518.598" height="440.535" filterUnits="userSpaceOnUse" color-interpolation-filters="sRGB">
<feFlood flood-opacity="0" result="BackgroundImageFix"/>
<feBlend mode="normal" in="SourceGraphic" in2="BackgroundImageFix" result="shape"/>
<feGaussianBlur stdDeviation="20" result="effect1_foregroundBlur_0_5"/>
</filter>
<filter id="filter40_f_0_5" x="342.449" y="242.202" width="518.598" height="440.535" filterUnits="userSpaceOnUse" color-interpolation-filters="sRGB">
<feFlood flood-opacity="0" result="BackgroundImageFix"/>
<feBlend mode="normal" in="SourceGraphic" in2="BackgroundImageFix" result="shape"/>
<feGaussianBlur stdDeviation="20" result="effect1_foregroundBlur_0_5"/>
</filter>
<filter id="filter41_f_0_5" x="342.449" y="242.202" width="518.598" height="440.535" filterUnits="userSpaceOnUse" color-interpolation-filters="sRGB">
<feFlood flood-opacity="0" result="BackgroundImageFix"/>
<feBlend mode="normal" in="SourceGraphic" in2="BackgroundImageFix" result="shape"/>
<feGaussianBlur stdDeviation="20" result="effect1_foregroundBlur_0_5"/>
</filter>
<filter id="filter42_f_0_5" x="392.84" y="281.921" width="417.816" height="361.099" filterUnits="userSpaceOnUse" color-interpolation-filters="sRGB">
<feFlood flood-opacity="0" result="BackgroundImageFix"/>
<feBlend mode="normal" in="SourceGraphic" in2="BackgroundImageFix" result="shape"/>
<feGaussianBlur stdDeviation="20" result="effect1_foregroundBlur_0_5"/>
</filter>
<filter id="filter43_f_0_5" x="342.449" y="242.202" width="518.598" height="440.535" filterUnits="userSpaceOnUse" color-interpolation-filters="sRGB">
<feFlood flood-opacity="0" result="BackgroundImageFix"/>
<feBlend mode="normal" in="SourceGraphic" in2="BackgroundImageFix" result="shape"/>
<feGaussianBlur stdDeviation="20" result="effect1_foregroundBlur_0_5"/>
</filter>
<filter id="filter44_f_0_5" x="342.449" y="242.202" width="518.598" height="440.535" filterUnits="userSpaceOnUse" color-interpolation-filters="sRGB">
<feFlood flood-opacity="0" result="BackgroundImageFix"/>
<feBlend mode="normal" in="SourceGraphic" in2="BackgroundImageFix" result="shape"/>
<feGaussianBlur stdDeviation="20" result="effect1_foregroundBlur_0_5"/>
</filter>
</defs>
</svg>
