<svg width="472" height="180" viewBox="0 0 472 180" fill="none" xmlns="http://www.w3.org/2000/svg">
<g clip-path="url(#clip0_601_4217)">
<path opacity="0.1" d="M106.336 0L106.336 177.949M129.664 0V177.949M152.993 0V177.949M176.322 0V177.949M199.651 0V177.949M222.979 0V177.949M246.308 0V177.949M269.637 0V177.949M292.966 0V177.949M316.294 0V177.949M339.623 0V177.949M362.952 0V177.949M386.281 0V177.949M409.609 0V177.949M432.938 0V177.949M36.892 0V177.949M60.2207 0V177.949M83.5495 0V177.949M35.2644 14.377H436.736M35.2644 37.7057H436.736M35.2644 61.0345H436.736M35.2644 84.3632H436.736M35.2644 107.692H436.736M35.2644 131.021H436.736M35.2644 154.349H436.736M35.2644 177.678H436.736" stroke="url(#paint0_radial_601_4217)" stroke-width="0.542529"/>
<g filter="url(#filter0_d_601_4217)">
<circle cx="236" cy="-0.000244141" r="137.26" fill="white" fill-opacity="0.05" shape-rendering="crispEdges"/>
<circle cx="236" cy="-0.000244141" r="136.988" stroke="white" stroke-opacity="0.05" stroke-width="0.542529" shape-rendering="crispEdges"/>
</g>
<circle cx="236" cy="0.0001297" r="90.6023" fill="white" fill-opacity="0.05"/>
<circle cx="236" cy="0.0001297" r="90.331" stroke="white" stroke-opacity="0.05" stroke-width="0.542529"/>
<circle cx="236" cy="-2.28882e-05" r="45.0299" fill="white" fill-opacity="0.05"/>
<circle cx="236" cy="-2.28882e-05" r="44.7586" stroke="white" stroke-opacity="0.05" stroke-width="0.542529"/>
</g>
<defs>
<filter id="filter0_d_601_4217" x="-9.76576" y="-245.766" width="491.531" height="491.531" filterUnits="userSpaceOnUse" color-interpolation-filters="sRGB">
<feFlood flood-opacity="0" result="BackgroundImageFix"/>
<feColorMatrix in="SourceAlpha" type="matrix" values="0 0 0 0 0 0 0 0 0 0 0 0 0 0 0 0 0 0 127 0" result="hardAlpha"/>
<feOffset/>
<feGaussianBlur stdDeviation="54.2529"/>
<feComposite in2="hardAlpha" operator="out"/>
<feColorMatrix type="matrix" values="0 0 0 0 1 0 0 0 0 1 0 0 0 0 1 0 0 0 0.1 0"/>
<feBlend mode="normal" in2="BackgroundImageFix" result="effect1_dropShadow_601_4217"/>
<feBlend mode="normal" in="SourceGraphic" in2="effect1_dropShadow_601_4217" result="shape"/>
</filter>
<radialGradient id="paint0_radial_601_4217" cx="0" cy="0" r="1" gradientUnits="userSpaceOnUse" gradientTransform="translate(236) rotate(90) scale(88.9747 200.736)">
<stop stop-color="white"/>
<stop offset="1" stop-color="white" stop-opacity="0"/>
</radialGradient>
<clipPath id="clip0_601_4217">
<rect width="472" height="180" fill="white"/>
</clipPath>
</defs>
</svg>
