<svg width="107" height="51" viewBox="0 0 107 51" fill="none" xmlns="http://www.w3.org/2000/svg">
<path opacity="0.2" d="M23.0798 23.3798C22.7798 23.9798 23.3798 24.5798 23.9798 24.2798C24.0798 24.1798 24.1798 24.0798 24.2798 23.9798C24.5798 23.3798 23.9798 22.7798 23.3798 23.0798C23.2798 23.0798 23.1798 23.1798 23.0798 23.3798Z" fill="white"/>
<path opacity="0.8" d="M0.0797964 8.3798C-0.220204 8.9798 0.37979 9.57981 0.97979 9.27981C1.07979 9.17981 1.17978 9.0798 1.27978 8.9798C1.57978 8.3798 0.979784 7.7798 0.379784 8.0798C0.279784 8.0798 0.179796 8.1798 0.0797964 8.3798Z" fill="white"/>
<path opacity="0.5" d="M105.08 0.379798C104.78 0.979798 105.38 1.57981 105.98 1.27981C106.08 1.17981 106.18 1.0798 106.28 0.979804C106.58 0.379804 105.98 -0.220205 105.38 0.0797951C105.28 0.0797951 105.18 0.179798 105.08 0.379798Z" fill="white"/>
<path opacity="0.1" d="M79.0798 20.3798C78.7798 20.9798 79.3798 21.5798 79.9798 21.2798C80.0798 21.1798 80.1798 21.0798 80.2798 20.9798C80.5798 20.3798 79.9798 19.7798 79.3798 20.0798C79.2798 20.0798 79.1798 20.1798 79.0798 20.3798Z" fill="white"/>
<path opacity="0.1" d="M77.0798 49.3798C76.7798 49.9798 77.3798 50.5798 77.9798 50.2798C78.0798 50.1798 78.1798 50.0798 78.2798 49.9798C78.5798 49.3798 77.9798 48.7798 77.3798 49.0798C77.2798 49.0798 77.1798 49.1798 77.0798 49.3798Z" fill="white"/>
</svg>
