<svg width="53" height="41" viewBox="0 0 53 41" fill="none" xmlns="http://www.w3.org/2000/svg">
<path d="M5 14C5.15876 13.9999 5.29296 13.8824 5.314 13.725L5.462 12.619C5.68125 10.9748 6.97478 9.68125 8.619 9.462L9.725 9.314C9.88236 9.29297 9.9999 9.15876 10 9C9.9999 8.84124 9.88238 8.70705 9.72502 8.686L8.61901 8.538C6.97479 8.31875 5.68127 7.02522 5.46202 5.381L5.31402 4.275C5.29298 4.11763 5.15877 4.0001 5 4C4.84124 4.0001 4.70703 4.11764 4.686 4.275L4.538 5.381C4.31875 7.02522 3.02522 8.31875 1.381 8.538L0.275 8.686C0.117636 8.70703 0.000103 8.84124 0 9C9.4957e-05 9.15876 0.117622 9.29295 0.274984 9.314L1.38098 9.462C3.0252 9.68125 4.31873 10.9748 4.53798 12.619L4.68598 13.725C4.70702 13.8824 4.84123 13.9999 5 14Z" fill="white"/>
<path opacity="0.5" d="M42 6C42.0953 5.99994 42.1758 5.92942 42.1884 5.835L42.2772 5.1714C42.4088 4.18487 43.1849 3.40875 44.1714 3.2772L44.835 3.1884C44.9294 3.17578 44.9999 3.09526 45 3C44.9999 2.90474 44.9294 2.82423 44.835 2.8116L44.1714 2.7228C43.1849 2.59125 42.4088 1.81513 42.2772 0.828601L42.1884 0.165001C42.1758 0.0705792 42.0953 5.7e-05 42 0C41.9047 6.17106e-05 41.8242 0.0705817 41.8116 0.165L41.7228 0.8286C41.5912 1.81513 40.8151 2.59125 39.8286 2.7228L39.165 2.8116C39.0706 2.82422 39.0001 2.90474 39 3C39.0001 3.09526 39.0706 3.17577 39.165 3.1884L39.8286 3.2772C40.8151 3.40875 41.5912 4.18487 41.7228 5.1714L41.8116 5.835C41.8242 5.92942 41.9047 5.99994 42 6Z" fill="white"/>
<path opacity="0.5" d="M51 41C51.0635 41 51.1172 40.9529 51.1256 40.89L51.1848 40.4476C51.2725 39.7899 51.7899 39.2725 52.4476 39.1848L52.89 39.1256C52.9529 39.1172 53 39.0635 53 39C53 38.9365 52.953 38.8828 52.89 38.8744L52.4476 38.8152C51.7899 38.7275 51.2725 38.2101 51.1848 37.5524L51.1256 37.11C51.1172 37.0471 51.0635 37 51 37C50.9365 37 50.8828 37.0471 50.8744 37.11L50.8152 37.5524C50.7275 38.2101 50.2101 38.7275 49.5524 38.8152L49.11 38.8744C49.0471 38.8828 49 38.9365 49 39C49 39.0635 49.047 39.1172 49.11 39.1256L49.5524 39.1848C50.2101 39.2725 50.7275 39.7899 50.8152 40.4476L50.8744 40.89C50.8828 40.9529 50.9365 41 51 41Z" fill="white"/>
</svg>
